<svg width="83" height="78" viewBox="0 0 83 78" fill="none" xmlns="http://www.w3.org/2000/svg">
<path d="M55.442 72.1284C55.4345 71.8491 55.484 71.5711 55.5874 71.3115C55.6909 71.0519 55.8461 70.8162 56.0437 70.6186C56.2413 70.421 56.4771 70.2657 56.7367 70.1623C56.9963 70.0588 57.2743 70.0093 57.5536 70.0169C57.8331 70.0093 58.1111 70.0587 58.3709 70.1621C58.6306 70.2655 58.8666 70.4207 59.0643 70.6183C59.2621 70.8159 59.4176 71.0517 59.5212 71.3113C59.6249 71.571 59.6746 71.849 59.6673 72.1284C59.6762 72.4084 59.6276 72.6873 59.5246 72.9477C59.4215 73.2082 59.2661 73.4448 59.0681 73.6429C58.87 73.841 58.6334 73.9964 58.3729 74.0994C58.1124 74.2025 57.8336 74.251 57.5536 74.2421C57.2738 74.2508 56.9951 74.2021 56.7349 74.099C56.4746 73.9958 56.2382 73.8404 56.0403 73.6423C55.8425 73.4442 55.6873 73.2077 55.5844 72.9474C55.4815 72.687 55.433 72.4083 55.442 72.1284Z" fill="#E17350"/>
<path d="M62.6694 70.9032C62.6694 68.4759 64.5768 67.219 69.5178 66.958C69.3873 66.1769 68.6504 65.8317 67.4378 65.8317C66.5283 65.8317 65.6168 66.1348 64.3157 66.7411L63.0147 64.3138C64.661 63.4022 66.3536 62.8822 68.1725 62.8822C71.2504 62.8822 73.2441 64.4001 73.2441 67.9538V73.979H70.2104L69.9494 72.8527H69.8631C68.802 73.6338 67.522 74.2401 66.1789 74.2401C63.9262 74.2422 62.6694 72.6822 62.6694 70.9032ZM69.5178 70.558V69.1706C66.8736 69.2569 66.2231 69.8653 66.2231 70.6022C66.2231 71.1011 66.6125 71.3833 67.3936 71.3833C68.261 71.3812 68.9325 70.9917 69.5178 70.558Z" fill="#E17350"/>
<path d="M78.0589 66.0485H73.941V63.1433H81.7873V73.9812H78.0589V66.0485ZM77.4083 59.5033C77.4083 58.2022 78.4062 57.2927 79.7936 57.2927C81.181 57.2927 82.1768 58.2043 82.1768 59.5033C82.1768 60.8022 81.1789 61.6696 79.7936 61.6696C78.4083 61.6696 77.4083 60.8043 77.4083 59.5033Z" fill="#E17350"/>
<path d="M0 70.8464C0 68.419 1.90736 67.1622 6.84841 66.9011C6.71789 66.1201 5.98106 65.7748 4.76843 65.7748C3.85895 65.7748 2.94737 66.0779 1.64632 66.6843L0.345266 64.2569C1.99158 63.3453 3.68421 62.8253 5.50316 62.8253C8.58106 62.8253 10.5747 64.3432 10.5747 67.8969V73.9222H7.54105L7.28 72.7958H7.19368C6.13263 73.5769 4.85263 74.1832 3.50947 74.1832C1.25684 74.1832 0 72.6232 0 70.8464ZM6.85052 70.499V69.1116C4.20631 69.1979 3.55579 69.8043 3.55579 70.5411C3.55579 71.0401 3.94527 71.3222 4.72632 71.3222C5.59158 71.3222 6.26526 70.9327 6.85052 70.499Z" fill="#3A3A3A"/>
<path d="M12.1684 68.5054C12.1684 64.9075 15.1599 62.8275 18.5199 62.8275C20.2105 62.8275 21.8357 63.1875 22.7473 64.0549L20.9936 66.4633C20.3287 66.0162 19.5397 65.79 18.7389 65.817C17.1136 65.817 15.9852 66.857 15.9852 68.5054C15.9852 70.1538 17.0905 71.1938 18.6084 71.1938C19.6715 71.1938 20.5368 70.7391 21.2736 70.2823L22.7473 72.6233C21.4635 73.6363 19.8753 74.186 18.24 74.1833C14.8126 74.1833 12.1684 72.1033 12.1684 68.5054Z" fill="#3A3A3A"/>
<path d="M23.8842 69.3285V65.9895L23.979 63.2148L24.3347 59.8337H27.6126V63.0843H32.2526L33.2758 65.9895H27.6126V69.2632C27.6126 70.8021 28.3284 71.2779 29.7158 71.2779C30.3879 71.271 31.0544 71.1537 31.6884 70.9306L32.3389 73.619C31.1721 73.9749 29.9609 74.1648 28.7411 74.1832C25.1853 74.1832 23.8842 72.2337 23.8842 69.3285Z" fill="#3A3A3A"/>
<path d="M32.8968 77.7811L33.5474 74.9643C33.7998 75.0462 34.063 75.0902 34.3284 75.0948C35.4779 75.0948 36.0631 74.6611 36.3431 74.0106L36.5158 73.5348L31.9642 63.0885H35.6484L37.1663 67.2506C37.5347 68.2906 37.8379 69.3748 38.141 70.5454H38.2274C38.4884 69.4401 38.8337 68.3348 39.16 67.2506L40.461 63.0885H43.9726L39.8968 73.7517C38.7474 76.678 37.4695 78.0001 34.6295 78.0001C34.0449 78.0015 33.4626 77.9279 32.8968 77.7811Z" fill="#3A3A3A"/>
<path d="M42.9494 63.0863H46.6778L48.0862 67.8105C48.4105 68.8947 48.6715 70.021 48.9747 71.1916H49.061C49.3641 70.021 49.6252 68.8947 49.9494 67.8105L51.3578 63.0863H54.9115L51.141 73.9242H46.8505L42.9494 63.0863Z" fill="#3A3A3A"/>
<path d="M15.0189 34.5389C15.0189 24.0842 23.2336 18.6716 44.5157 17.5516C43.9557 14.1895 40.7831 12.6968 35.5536 12.6968C31.6336 12.6968 27.7136 14.0042 22.1115 16.6168L16.5115 6.1621C23.6063 2.23999 30.8863 0 38.7284 0C51.9831 0 60.5726 6.53472 60.5726 21.8421V47.7937H47.5031L46.3831 42.939H46.0105C41.4378 46.299 35.9284 48.9137 30.141 48.9137C20.4336 48.9137 15.0189 42.1916 15.0189 34.5389Z" fill="#3A3A3A"/>
<path d="M21.6211 36.7242C21.6211 32.5011 24.8589 29.5453 29.3621 29.5453C33.8653 29.5453 37.1032 32.5011 37.1032 36.7242C37.1032 40.9474 33.8653 43.7621 29.3621 43.7621C24.8589 43.7621 21.6211 40.9474 21.6211 36.7242Z" fill="white"/>
<path d="M51.6737 11.9873C51.6737 7.76413 54.9116 4.80835 59.4147 4.80835C63.9179 4.80835 67.1558 7.76413 67.1558 11.9873C67.1558 16.2105 63.9179 19.0252 59.4147 19.0252C54.9116 19.0252 51.6737 16.2083 51.6737 11.9873Z" fill="#E17350"/>
</svg>
