<svg width="24" height="24" viewBox="0 0 24 24" fill="none" xmlns="http://www.w3.org/2000/svg">
<rect width="24" height="24" transform="matrix(1 0 0 -1 0 24)" fill="white" fill-opacity="0.01"/>
<path fill-rule="evenodd" clip-rule="evenodd" d="M11.293 18.707L5.79301 13.208C5.60572 13.0202 5.50055 12.7657 5.50055 12.5005C5.50055 12.2352 5.60572 11.9808 5.79301 11.793C5.8858 11.7001 5.996 11.6263 6.11732 11.576C6.23863 11.5257 6.36868 11.4998 6.50001 11.4998C6.63134 11.4998 6.76139 11.5257 6.8827 11.576C7.00402 11.6263 7.11422 11.7001 7.20701 11.793L11 15.586V6C11 5.73478 11.1054 5.48042 11.2929 5.29289C11.4804 5.10535 11.7348 5 12 5C12.2652 5 12.5196 5.10535 12.7071 5.29289C12.8947 5.48042 13 5.73478 13 6V15.586L16.793 11.793C16.8859 11.7002 16.9962 11.6265 17.1176 11.5763C17.2389 11.5261 17.369 11.5002 17.5004 11.5003C17.6317 11.5003 17.7618 11.5263 17.8831 11.5766C18.0044 11.6269 18.1147 11.7006 18.2075 11.7935C18.3004 11.8864 18.374 11.9967 18.4242 12.1181C18.4744 12.2394 18.5003 12.3695 18.5002 12.5008C18.5002 12.6322 18.4742 12.7623 18.4239 12.8836C18.3736 13.0049 18.2999 13.1152 18.207 13.208L12.707 18.707C12.6144 18.8002 12.5042 18.874 12.3829 18.9243C12.2615 18.9746 12.1314 19.0004 12 19C11.8686 19.0004 11.7385 18.9746 11.6171 18.9243C11.4958 18.874 11.3856 18.8002 11.293 18.707Z" fill="#DE350B"/>
</svg>
