<svg width="18" height="19" viewBox="0 0 18 19" fill="none" xmlns="http://www.w3.org/2000/svg">
<path fill-rule="evenodd" clip-rule="evenodd" d="M4.7843 4.86279C4.45402 4.86279 4.18627 5.13054 4.18627 5.46083V6.6569C4.18627 6.98719 4.45402 7.25494 4.7843 7.25494H5.98038C6.31067 7.25494 6.57842 6.98719 6.57842 6.65691V5.46083C6.57842 5.13054 6.31067 4.86279 5.98038 4.86279H4.7843ZM7.77448 5.46083C7.77448 5.13054 8.04223 4.86279 8.37252 4.86279H9.56859C9.89888 4.86279 10.1666 5.13054 10.1666 5.46083V6.6569C10.1666 6.98719 9.89888 7.25494 9.56859 7.25494H8.37252C8.04223 7.25494 7.77448 6.98719 7.77448 6.6569V5.46083ZM11.3627 5.46083C11.3627 5.13054 11.6305 4.86279 11.9607 4.86279H13.1568C13.4871 4.86279 13.7549 5.13054 13.7549 5.46083V6.6569C13.7549 6.98719 13.4871 7.25494 13.1568 7.25494H11.9607C11.6305 7.25494 11.3627 6.98719 11.3627 6.6569V5.46083ZM4.18626 9.04908C4.18626 8.71879 4.45401 8.45104 4.7843 8.45104H5.98038C6.31066 8.45104 6.57841 8.71879 6.57841 9.04908V10.2452C6.57841 10.5754 6.31066 10.8432 5.98038 10.8432H4.7843C4.45401 10.8432 4.18626 10.5754 4.18626 10.2452V9.04908ZM8.37252 8.45104C8.04223 8.45104 7.77448 8.71879 7.77448 9.04908V10.2452C7.77448 10.5754 8.04223 10.8432 8.37252 10.8432H9.56859C9.89888 10.8432 10.1666 10.5754 10.1666 10.2452V9.04908C10.1666 8.71879 9.89888 8.45104 9.56859 8.45104H8.37252ZM7.77448 12.6373C7.77448 12.307 8.04223 12.0393 8.37252 12.0393H9.56859C9.89888 12.0393 10.1666 12.307 10.1666 12.6373V13.8334C10.1666 14.1637 9.89888 14.4314 9.56859 14.4314H8.37252C8.04223 14.4314 7.77448 14.1637 7.77448 13.8334V12.6373ZM11.9607 8.45104C11.6305 8.45104 11.3627 8.71879 11.3627 9.04908V10.2452C11.3627 10.5754 11.6305 10.8432 11.9607 10.8432H13.1568C13.4871 10.8432 13.7549 10.5754 13.7549 10.2452V9.04908C13.7549 8.71879 13.4871 8.45104 13.1568 8.45104H11.9607Z" fill="url(#paint0_linear_1253_13212)"/>
<circle cx="8.97056" cy="9.04905" r="8.55193" stroke="url(#paint1_linear_1253_13212)" stroke-width="0.837252"/>
<defs>
<linearGradient id="paint0_linear_1253_13212" x1="15.25" y1="3.66672" x2="3.28921" y2="14.7304" gradientUnits="userSpaceOnUse">
<stop stop-color="#DA5125"/>
<stop offset="1" stop-color="#833116"/>
</linearGradient>
<linearGradient id="paint1_linear_1253_13212" x1="15.6985" y1="1.76047" x2="2.52297" y2="16.0573" gradientUnits="userSpaceOnUse">
<stop stop-color="#833116"/>
<stop offset="1" stop-color="#2C1007"/>
</linearGradient>
</defs>
</svg>
