<svg width="24" height="24" viewBox="0 0 24 24" fill="none" xmlns="http://www.w3.org/2000/svg">
<rect width="24" height="24" transform="translate(0 0.000488281)" fill="white" fill-opacity="0.01"/>
<path fill-rule="evenodd" clip-rule="evenodd" d="M22 12.0005C22 17.5233 17.5228 22.0005 12 22.0005C6.47715 22.0005 2 17.5233 2 12.0005C2 6.47764 6.47715 2.00049 12 2.00049C17.5228 2.00049 22 6.47764 22 12.0005ZM9.3824 11.0694C9.50441 11.1218 9.61475 11.198 9.707 11.2935L11 12.5865L14.293 9.29351C14.3852 9.198 14.4956 9.12182 14.6176 9.06941C14.7396 9.017 14.8708 8.98941 15.0036 8.98826C15.1364 8.9871 15.2681 9.01241 15.391 9.06269C15.5138 9.11297 15.6255 9.18722 15.7194 9.28111C15.8133 9.37501 15.8875 9.48666 15.9378 9.60955C15.9881 9.73245 16.0134 9.86413 16.0122 9.99691C16.0111 10.1297 15.9835 10.2609 15.9311 10.3829C15.8787 10.5049 15.8025 10.6153 15.707 10.7075L11.707 14.7075C11.5195 14.895 11.2652 15.0003 11 15.0003C10.7348 15.0003 10.4805 14.895 10.293 14.7075L8.293 12.7075C8.19749 12.6153 8.1213 12.5049 8.0689 12.3829C8.01649 12.2609 7.9889 12.1297 7.98775 11.9969C7.98659 11.8641 8.0119 11.7325 8.06218 11.6096C8.11246 11.4867 8.18671 11.375 8.2806 11.2811C8.3745 11.1872 8.48615 11.113 8.60904 11.0627C8.73194 11.0124 8.86362 10.9871 8.9964 10.9883C9.12918 10.9894 9.2604 11.017 9.3824 11.0694Z" fill="#FF991F"/>
</svg>
