<svg width="24" height="24" viewBox="0 0 24 24" fill="none" xmlns="http://www.w3.org/2000/svg">
<rect width="24" height="24" fill="white" fill-opacity="0.01"/>
<path d="M6.48806 7.99969H8C8.55228 7.99969 9 8.44741 9 8.99969C9 9.55198 8.55228 9.99969 8 9.99969H4C3.44772 9.99969 3 9.55198 3 8.99969V4.99969C3 4.44741 3.44772 3.99969 4 3.99969C4.55228 3.99969 5 4.44741 5 4.99969V6.6431C5.75691 5.61951 6.7293 4.76129 7.87158 4.12812C12.2189 1.71834 17.6967 3.28906 20.1064 7.63641C22.5162 11.9838 20.9455 17.4615 16.5982 19.8713C12.2508 22.281 6.77306 20.7103 4.36329 16.363C4.09553 15.8799 4.27006 15.2713 4.7531 15.0036C5.23614 14.7358 5.84477 14.9103 6.11253 15.3934C7.9868 18.7746 12.2473 19.9963 15.6285 18.122C19.0098 16.2478 20.2315 11.9873 18.3572 8.60603C16.4829 5.22475 12.2225 4.00309 8.8412 5.87736C7.88984 6.4047 7.09195 7.13032 6.48806 7.99969ZM13.2349 9.00409V12.5861L15.4199 14.7711C15.8089 15.1601 15.8089 15.7961 15.4199 16.1851C15.0309 16.5741 14.3949 16.5741 14.0059 16.1851L11.5359 13.7161C11.3509 13.5341 11.2349 13.2831 11.2349 13.0041V9.00409C11.2349 9.00263 11.2349 9.00116 11.2349 8.99969V6.99969C11.2349 6.44741 11.6826 5.99969 12.2349 5.99969C12.7871 5.99969 13.2349 6.44741 13.2349 6.99969V8.99969C13.2349 9.00116 13.2349 9.00263 13.2349 9.00409H13.2349Z" fill="#6C3918"/>
</svg>
