<svg width="20" height="20" viewBox="0 0 20 20" fill="none" xmlns="http://www.w3.org/2000/svg">
<path fill-rule="evenodd" clip-rule="evenodd" d="M12.9571 7.04289C12.5666 6.65237 11.9334 6.65237 11.5429 7.04289L7.04289 11.5429C6.65237 11.9334 6.65237 12.5666 7.04289 12.9571C7.43342 13.3476 8.06658 13.3476 8.45711 12.9571L12.9571 8.45711C13.3476 8.06658 13.3476 7.43342 12.9571 7.04289Z" fill="#952122"/>
<path fill-rule="evenodd" clip-rule="evenodd" d="M7.04289 7.04289C6.65237 7.43342 6.65237 8.06658 7.04289 8.45711L11.5429 12.9571C11.9334 13.3476 12.5666 13.3476 12.9571 12.9571C13.3476 12.5666 13.3476 11.9334 12.9571 11.5429L8.45711 7.04289C8.06658 6.65237 7.43342 6.65237 7.04289 7.04289Z" fill="#952122"/>
<circle cx="10" cy="10" r="9" stroke="#952122" stroke-width="2"/>
</svg>
