<svg width="16" height="18" viewBox="0 0 16 18" fill="none" xmlns="http://www.w3.org/2000/svg">
<path d="M14.7143 10.7143H7.18857L8.66285 9.23428L7.85714 8.42857L5 11.2857L7.85714 14.1428L8.66285 13.3371L7.18857 11.8571H14.7143V10.7143Z" fill="black"/>
<path d="M12.4286 7.85715V5.57144C12.429 5.49623 12.4146 5.42168 12.3861 5.35206C12.3577 5.28244 12.3158 5.21912 12.2628 5.16572L8.26285 1.16572C8.20946 1.11276 8.14614 1.07086 8.07651 1.04243C8.00689 1.01399 7.93234 0.999575 7.85714 1.00001H2.14286C1.83975 1.00001 1.54906 1.12042 1.33473 1.33474C1.12041 1.54907 1 1.83976 1 2.14287V15.8571C1 16.1602 1.12041 16.4509 1.33473 16.6653C1.54906 16.8796 1.83975 17 2.14286 17H11.2857C11.5888 17 11.8795 16.8796 12.0938 16.6653C12.3082 16.4509 12.4286 16.1602 12.4286 15.8571V14.7143H11.2857V15.8571H2.14286V2.14287H6.71428V5.57144C6.71428 5.87454 6.83469 6.16523 7.04902 6.37956C7.26334 6.59388 7.55403 6.71429 7.85714 6.71429H11.2857V7.85715H12.4286ZM7.85714 5.57144V2.37715L11.0514 5.57144H7.85714Z" fill="black"/>
<path d="M14.7143 10.7143H7.18857L8.66285 9.23428L7.85714 8.42857L5 11.2857L7.85714 14.1428L8.66285 13.3371L7.18857 11.8571H14.7143V10.7143Z" stroke="black" stroke-width="0.6"/>
<path d="M12.4286 7.85715V5.57144C12.429 5.49623 12.4146 5.42168 12.3861 5.35206C12.3577 5.28244 12.3158 5.21912 12.2628 5.16572L8.26285 1.16572C8.20946 1.11276 8.14614 1.07086 8.07651 1.04243C8.00689 1.01399 7.93234 0.999575 7.85714 1.00001H2.14286C1.83975 1.00001 1.54906 1.12042 1.33473 1.33474C1.12041 1.54907 1 1.83976 1 2.14287V15.8571C1 16.1602 1.12041 16.4509 1.33473 16.6653C1.54906 16.8796 1.83975 17 2.14286 17H11.2857C11.5888 17 11.8795 16.8796 12.0938 16.6653C12.3082 16.4509 12.4286 16.1602 12.4286 15.8571V14.7143H11.2857V15.8571H2.14286V2.14287H6.71428V5.57144C6.71428 5.87454 6.83469 6.16523 7.04902 6.37956C7.26334 6.59388 7.55403 6.71429 7.85714 6.71429H11.2857V7.85715H12.4286ZM7.85714 5.57144V2.37715L11.0514 5.57144H7.85714Z" stroke="black" stroke-width="0.6"/>
</svg>
