<svg width="12" height="13" viewBox="0 0 12 13" fill="none" xmlns="http://www.w3.org/2000/svg">
<path fill-rule="evenodd" clip-rule="evenodd" d="M11.5 6.48051H10.2222V10.9527H1.27778V6.48051H0V10.9566C0 11.6593 0.570528 12.2305 1.27458 12.2305H10.2254C10.3928 12.2307 10.5586 12.1978 10.7132 12.1339C10.8679 12.0699 11.0085 11.9761 11.1268 11.8578C11.2452 11.7395 11.3391 11.599 11.4031 11.4443C11.4672 11.2897 11.5001 11.1239 11.5 10.9566V6.48051Z" fill="white"/>
<path fill-rule="evenodd" clip-rule="evenodd" d="M6.38889 1.3547C6.3867 1.18717 6.31813 1.02736 6.19823 0.91033C6.07833 0.793305 5.91689 0.728633 5.74936 0.730508C5.39733 0.730508 5.11111 1.0097 5.11111 1.3547L5.11111 8.41251C5.11313 8.57981 5.18149 8.73947 5.30117 8.85639C5.42085 8.97332 5.58206 9.03794 5.74936 9.03607C5.91679 9.03794 6.07812 8.97336 6.19801 8.85647C6.31789 8.73958 6.38653 8.57993 6.38889 8.41251L6.38889 1.3547Z" fill="white"/>
<path fill-rule="evenodd" clip-rule="evenodd" d="M8.11069 6.67409C7.98483 6.5501 7.81524 6.48059 7.63856 6.48059C7.46187 6.48059 7.29228 6.5501 7.16642 6.67409L5.75 8.07773L4.33358 6.67409C4.20802 6.55002 4.03861 6.48044 3.86208 6.48044C3.68556 6.48044 3.51615 6.55002 3.39058 6.67409C3.12928 6.9322 3.12928 7.35131 3.39058 7.61006L5.2785 9.48201C5.4045 9.60551 5.57389 9.67468 5.75032 9.67468C5.92675 9.67468 6.09614 9.60551 6.22214 9.48201L8.11069 7.61006C8.1723 7.54869 8.22118 7.47576 8.25453 7.39545C8.28788 7.31514 8.30505 7.22904 8.30505 7.14208C8.30505 7.05512 8.28788 6.96902 8.25453 6.88871C8.22118 6.8084 8.1723 6.73547 8.11069 6.67409Z" fill="white"/>
</svg>
