<svg width="24" height="25" viewBox="0 0 24 25" fill="none" xmlns="http://www.w3.org/2000/svg">
<rect width="24" height="24" transform="translate(0 0.5)" fill="white" fill-opacity="0.01"/>
<path d="M5 7.5V17.5H19V7.5H5ZM19 5.5C20.1 5.5 21 6.4 21 7.5V17.5C21 18.6 20.1 19.5 19 19.5H5C3.9 19.5 3 18.6 3 17.5V7.5C3 6.4 3.9 5.5 5 5.5H19Z" fill="#42526E"/>
<path fill-rule="evenodd" clip-rule="evenodd" d="M5.498 7H3.124C3.273 7.44 3.523 7.854 3.874 8.205L9.756 14.086C10.0455 14.3757 10.3892 14.6056 10.7676 14.7624C11.1459 14.9192 11.5514 14.9999 11.961 14.9999C12.3706 14.9999 12.7761 14.9192 13.1544 14.7624C13.5328 14.6056 13.8765 14.3757 14.166 14.086L20.048 8.205C20.398 7.854 20.648 7.44 20.797 7H18.424L12.752 12.672C12.6481 12.776 12.5247 12.8585 12.3889 12.9147C12.2531 12.971 12.1075 13 11.9605 13C11.8135 13 11.6679 12.971 11.5321 12.9147C11.3963 12.8585 11.2729 12.776 11.169 12.672L5.498 7Z" fill="#42526E"/>
</svg>
