<svg width="22" height="22" viewBox="0 0 22 22" fill="none" xmlns="http://www.w3.org/2000/svg">
<rect width="22" height="22" fill="white" fill-opacity="0.01"/>
<path fill-rule="evenodd" clip-rule="evenodd" d="M10.9846 14.652C10.0122 14.6513 9.07978 14.2648 8.39201 13.5774C7.70424 12.8899 7.31729 11.9577 7.31608 10.9853C7.31608 8.96316 8.9615 7.31866 10.9846 7.31866C11.957 7.31938 12.8894 7.70587 13.5771 8.39329C14.2649 9.08071 14.6519 10.0129 14.6531 10.9853C14.6531 13.0075 13.0077 14.652 10.9846 14.652ZM11.0002 3.66666C5.94016 3.66666 1.8335 8.10332 1.8335 11C1.8335 13.8288 6.02908 18.3333 11.0002 18.3333C15.9712 18.3333 20.1668 13.8288 20.1668 11C20.1668 8.10332 16.0592 3.66666 11.0002 3.66666Z" fill="black"/>
<path d="M11.0002 12.8333C12.0127 12.8333 12.8335 12.0125 12.8335 11C12.8335 9.98747 12.0127 9.16666 11.0002 9.16666C9.98764 9.16666 9.16683 9.98747 9.16683 11C9.16683 12.0125 9.98764 12.8333 11.0002 12.8333Z" fill="black"/>
</svg>
