<svg width="22" height="22" viewBox="0 0 22 22" fill="none" xmlns="http://www.w3.org/2000/svg">
<rect width="22" height="22" fill="white" fill-opacity="0.01"/>
<path fill-rule="evenodd" clip-rule="evenodd" d="M10.9844 14.652C10.012 14.6512 9.07959 14.2647 8.39183 13.5773C7.70406 12.8899 7.31711 11.9577 7.3159 10.9853C7.3159 8.96313 8.96131 7.31863 10.9844 7.31863C11.9568 7.31935 12.8892 7.70584 13.577 8.39326C14.2647 9.08068 14.6517 10.0129 14.6529 10.9853C14.6529 13.0075 13.0075 14.652 10.9844 14.652ZM11 3.66663C5.93998 3.66663 1.83331 8.10329 1.83331 11C1.83331 13.8288 6.0289 18.3333 11 18.3333C15.9711 18.3333 20.1666 13.8288 20.1666 11C20.1666 8.10329 16.0591 3.66663 11 3.66663Z" fill="black"/>
<path d="M11 12.8333C12.0125 12.8333 12.8333 12.0125 12.8333 11C12.8333 9.98744 12.0125 9.16663 11 9.16663C9.98746 9.16663 9.16665 9.98744 9.16665 11C9.16665 12.0125 9.98746 12.8333 11 12.8333Z" fill="black"/>
<path d="M5.95408 1.37919C5.45014 0.87524 4.63307 0.87524 4.12913 1.37919C3.62518 1.88314 3.62518 2.7002 4.12913 3.20415L18.7958 17.8708C19.2997 18.3748 20.1168 18.3748 20.6208 17.8708C21.1247 17.3669 21.1247 16.5498 20.6208 16.0459L5.95408 1.37919Z" fill="black" stroke="white" stroke-width="0.747547" stroke-linecap="round"/>
</svg>
