<svg width="28" height="28" viewBox="0 0 28 28" fill="none" xmlns="http://www.w3.org/2000/svg">
<path d="M18.4852 25.0526H9.55867C7.71793 25.0526 6.2207 23.5437 6.2207 21.689V6.74058C6.2207 4.88584 7.71818 3.37695 9.55867 3.37695H15.8161C15.8484 3.37697 15.8804 3.38337 15.9102 3.39578C15.94 3.40819 15.9671 3.42638 15.9899 3.44929L21.7519 9.2554C21.7981 9.30193 21.824 9.36484 21.824 9.4304V21.689C21.8237 23.5437 20.326 25.0526 18.4852 25.0526ZM9.55815 3.8711C7.98833 3.8711 6.71148 5.15806 6.71148 6.73981V21.689C6.71148 23.2704 7.98833 24.5577 9.55815 24.5577H18.4852C20.055 24.5577 21.3319 23.271 21.3319 21.689V9.53306L15.7145 3.87162L9.55815 3.8711Z" fill="white"/>
<path fill-rule="evenodd" clip-rule="evenodd" d="M8.48623 1.16602H16.2158L23.3333 8.20197V23.0565C23.3333 25.1419 21.6232 26.8327 19.5137 26.8327H8.48623C6.37675 26.8327 4.66663 25.1419 4.66663 23.0565V4.94223C4.66663 2.85683 6.37675 1.16602 8.48623 1.16602ZM21 10.5L14 3.5V9.00656C13.9991 9.2019 14.0371 9.39549 14.1116 9.57628C14.1862 9.75707 14.2959 9.92151 14.4346 10.0602C14.5732 10.1989 14.7381 10.3091 14.9197 10.3846C15.1012 10.46 15.296 10.4993 15.4929 10.5H21Z" fill="#101E55"/>
<path d="M10.9457 18.1171H10.3076V14.4307H10.9457V18.1171Z" fill="white"/>
<path d="M14.9149 14.9471H13.7666V18.1171H13.1302V14.9471H11.9907V14.4307H14.9149V14.9471Z" fill="white"/>
<path d="M17.2715 16.6992H16.5575V18.1171H15.9185V14.4307H17.2147C17.6399 14.4307 17.9683 14.5257 18.1999 14.7158C18.4315 14.906 18.5472 15.1825 18.5468 15.5455C18.5468 15.7919 18.4874 15.9984 18.3684 16.1648C18.242 16.3371 18.0696 16.4702 17.8709 16.5488L18.6987 18.0839V18.1168H18.0109L17.2715 16.6992ZM16.5575 16.1827H17.2147C17.431 16.1827 17.5998 16.1283 17.7213 16.0194C17.8428 15.9105 17.9033 15.7615 17.9028 15.5724C17.9028 15.3751 17.8466 15.2224 17.7343 15.1143C17.622 15.0063 17.4545 14.9506 17.2319 14.9471H16.5575V16.1827Z" fill="white"/>
<path d="M23.0594 12.834H4.94062C4.14499 12.834 3.5 13.4298 3.5 14.1648V18.5032C3.5 19.2382 4.14499 19.834 4.94062 19.834H23.0594C23.855 19.834 24.5 19.2382 24.5 18.5032V14.1648C24.5 13.4298 23.855 12.834 23.0594 12.834Z" fill="#101E55" stroke="white" stroke-width="0.6" stroke-miterlimit="10"/>
<path d="M10.5 18.0147C10.3409 18.2289 10.1202 18.3912 9.83795 18.5015C9.55567 18.6118 9.23532 18.6669 8.8769 18.6667C8.50817 18.6667 8.18173 18.5804 7.89759 18.4079C7.61222 18.2337 7.38349 17.9759 7.24049 17.6671C7.08635 17.3458 7.00619 16.9709 7 16.5424V16.1869C7 15.5003 7.15919 14.9643 7.47758 14.5788C7.79597 14.1934 8.24033 14.0004 8.81067 14C9.30032 14 9.68928 14.1253 9.97754 14.376C10.2658 14.6266 10.439 14.987 10.4972 15.457H9.74757C9.66297 14.9099 9.35572 14.6363 8.82583 14.6363C8.4833 14.6363 8.22279 14.7636 8.0443 15.018C7.86582 15.2725 7.77327 15.6461 7.76667 16.1386V16.4878C7.76667 16.9776 7.86695 17.3584 8.06752 17.6301C8.26808 17.9018 8.54665 18.0374 8.90321 18.0367C9.29402 18.0367 9.57207 17.9452 9.73735 17.762V16.873H8.8314V16.2741H10.5V18.0147Z" fill="white" stroke="white" stroke-width="0.3"/>
<path d="M15.5198 17.436C15.5198 17.2364 15.4474 17.0825 15.3025 16.9743C15.1577 16.866 14.8967 16.7568 14.5196 16.6464C14.1428 16.5361 13.8427 16.4138 13.6195 16.2796C13.1928 16.0195 12.9796 15.6803 12.9798 15.2622C12.9798 14.8962 13.1335 14.5946 13.4407 14.3572C13.748 14.1199 14.1472 14.001 14.6381 14.0003C14.9383 13.9951 15.2359 14.0548 15.5093 14.1751C15.7539 14.2829 15.9623 14.4554 16.1105 14.6729C16.2554 14.8851 16.3315 15.1345 16.3291 15.389H15.5192C15.5192 15.1519 15.4423 14.9663 15.2887 14.8321C15.1351 14.6979 14.9156 14.6308 14.6302 14.6308C14.3647 14.6308 14.1583 14.6858 14.0113 14.796C13.8642 14.9061 13.7915 15.0598 13.793 15.2571C13.793 15.4236 13.8724 15.5621 14.031 15.6725C14.1897 15.7828 14.4513 15.891 14.8156 15.9971C15.1802 16.1021 15.4727 16.2217 15.6933 16.3559C15.9139 16.4902 16.0757 16.6441 16.1786 16.8177C16.285 17.0042 16.3382 17.2149 16.333 17.428C16.333 17.8063 16.1836 18.1074 15.8846 18.3313C15.5857 18.5552 15.1796 18.6669 14.6665 18.6665C14.3454 18.6701 14.0271 18.6079 13.7324 18.4841C13.4484 18.3624 13.2276 18.1945 13.07 17.9802C12.9109 17.7614 12.8281 17.4989 12.8336 17.2312H13.6472C13.6472 17.4893 13.735 17.6891 13.9105 17.8303C14.0861 17.9715 14.338 18.0423 14.6661 18.0425C14.9491 18.0425 15.1617 17.9869 15.3042 17.8757C15.3732 17.824 15.4286 17.7572 15.4661 17.6808C15.5036 17.6044 15.522 17.5206 15.5198 17.436Z" fill="white" stroke="white" stroke-width="0.3"/>
<path d="M21 14.6541H19.6242V18.6667H18.8637V14.6541H17.5V14H21V14.6541Z" fill="white" stroke="white" stroke-width="0.3"/>
</svg>
