<svg width="21" height="22" viewBox="0 0 21 22" fill="none" xmlns="http://www.w3.org/2000/svg">
<path fill-rule="evenodd" clip-rule="evenodd" d="M20.6006 11.2724C20.6006 16.9661 15.994 21.5818 10.3115 21.5818C4.62903 21.5818 0.0224609 16.9661 0.0224609 11.2724C0.0224609 5.5786 4.62903 0.962891 10.3115 0.962891C15.994 0.962891 20.6006 5.5786 20.6006 11.2724ZM13.3982 8.17952C13.3982 9.88765 12.0163 11.2724 10.3115 11.2724C8.60677 11.2724 7.2248 9.88765 7.2248 8.17952C7.2248 6.47139 8.60677 5.08668 10.3115 5.08668C12.0163 5.08668 13.3982 6.47139 13.3982 8.17952ZM10.3115 19.5199C8.44086 19.5227 6.62552 18.8843 5.16699 17.7106V14.3652C5.16699 13.226 6.07963 12.3033 7.2248 12.3033H13.3982C14.5352 12.3033 15.456 13.2157 15.456 14.3652V17.7106C14.0464 18.8426 12.2582 19.5199 10.3115 19.5199Z" fill="black"/>
</svg>
