<svg width="10" height="10" viewBox="0 0 10 10" fill="none" xmlns="http://www.w3.org/2000/svg">
<g clip-path="url(#clip0_2_2)">
<path fill-rule="evenodd" clip-rule="evenodd" d="M4.85101 9.80978C3.61443 9.80978 2.42849 9.31807 1.55408 8.44285C0.67968 7.56771 0.188446 6.38067 0.188446 5.14295C0.188446 3.90525 0.67968 2.71823 1.55408 1.84303C2.42849 0.96784 3.61443 0.476158 4.85101 0.476158C6.08761 0.476158 7.27357 0.96784 8.14793 1.84303C9.02236 2.71823 9.51357 3.90525 9.51357 5.14295C9.51357 6.38067 9.02236 7.56771 8.14793 8.44285C7.27357 9.31807 6.08761 9.80978 4.85101 9.80978ZM4.85101 4.85128C4.69644 4.85128 4.5482 4.91274 4.4389 5.02214C4.3296 5.13154 4.26819 5.27992 4.26819 5.43463V6.893C4.26819 7.04772 4.3296 7.19607 4.4389 7.3055C4.5482 7.41493 4.69644 7.47635 4.85101 7.47635C5.00559 7.47635 5.15384 7.41493 5.26314 7.3055C5.37244 7.19607 5.43384 7.04772 5.43384 6.893V5.43463C5.43384 5.27992 5.37244 5.13154 5.26314 5.02214C5.15384 4.91274 5.00559 4.85128 4.85101 4.85128ZM4.85101 4.19501C5.06356 4.19501 5.26739 4.1105 5.41768 3.96008C5.56796 3.80965 5.65239 3.60564 5.65239 3.3929C5.65239 3.18018 5.56796 2.97615 5.41768 2.82573C5.26739 2.67531 5.06356 2.5908 4.85101 2.5908C4.63848 2.5908 4.43464 2.67531 4.28436 2.82573C4.13407 2.97615 4.04964 3.18018 4.04964 3.3929C4.04964 3.60564 4.13407 3.80965 4.28436 3.96008C4.43464 4.1105 4.63848 4.19501 4.85101 4.19501Z" fill="white"/>
</g>
<defs>
<clipPath id="clip0_2_2">
<rect width="10" height="10" fill="white"/>
</clipPath>
</defs>
</svg>
