<svg width="14" height="14" viewBox="0 0 14 14" fill="none" xmlns="http://www.w3.org/2000/svg">
<path fill-rule="evenodd" clip-rule="evenodd" d="M6.79142 13.7337C5.0602 13.7337 3.39988 13.0453 2.17571 11.82C0.951552 10.5948 0.263824 8.93294 0.263824 7.20014C0.263824 5.46735 0.951552 3.80552 2.17571 2.58025C3.39988 1.35498 5.0602 0.666626 6.79142 0.666626C8.52265 0.666626 10.183 1.35498 11.4071 2.58025C12.6313 3.80552 13.319 5.46735 13.319 7.20014C13.319 8.93294 12.6313 10.5948 11.4071 11.82C10.183 13.0453 8.52265 13.7337 6.79142 13.7337ZM6.79142 6.7918C6.57502 6.7918 6.36748 6.87784 6.21446 7.031C6.06144 7.18416 5.97547 7.39189 5.97547 7.60849V9.65021C5.97547 9.86681 6.06144 10.0745 6.21446 10.2277C6.36748 10.3809 6.57502 10.4669 6.79142 10.4669C7.00783 10.4669 7.21537 10.3809 7.36839 10.2277C7.52141 10.0745 7.60737 9.86681 7.60737 9.65021V7.60849C7.60737 7.39189 7.52141 7.18416 7.36839 7.031C7.21537 6.87784 7.00783 6.7918 6.79142 6.7918ZM6.79142 5.87302C7.08898 5.87302 7.37435 5.75471 7.58475 5.54412C7.79515 5.33352 7.91335 5.0479 7.91335 4.75007C7.91335 4.45225 7.79515 4.16662 7.58475 3.95603C7.37435 3.74544 7.08898 3.62713 6.79142 3.62713C6.49387 3.62713 6.2085 3.74544 5.9981 3.95603C5.7877 4.16662 5.66949 4.45225 5.66949 4.75007C5.66949 5.0479 5.7877 5.33352 5.9981 5.54412C6.2085 5.75471 6.49387 5.87302 6.79142 5.87302Z" fill="black"/>
</svg>
