<svg width="8" height="8" viewBox="0 0 8 8" fill="none" xmlns="http://www.w3.org/2000/svg">
<rect width="8" height="8" rx="4" fill="white"/>
<path d="M5.9797 2.99186C5.96292 3.03922 5.93619 3.08296 5.90108 3.12051L3.9017 5.36542C3.86613 5.40535 3.82206 5.4379 3.7723 5.461C3.72255 5.48411 3.66819 5.49726 3.6127 5.49961C3.55721 5.50197 3.5018 5.49349 3.45 5.4747C3.39821 5.45591 3.35117 5.42723 3.31188 5.39049L2.11225 4.26804C2.03941 4.19747 1.9991 4.10296 2.00002 4.00486C2.00093 3.90675 2.04298 3.81291 2.11712 3.74354C2.19126 3.67417 2.29156 3.63482 2.3964 3.63397C2.50125 3.63312 2.60226 3.67083 2.67768 3.73898L3.5674 4.57185L5.28687 2.64159C5.32002 2.60251 5.36118 2.57003 5.40793 2.54605C5.45469 2.52207 5.5061 2.50708 5.55914 2.50197C5.61218 2.49686 5.66578 2.50172 5.71678 2.51628C5.76778 2.53083 5.81516 2.55478 5.85612 2.58672C5.89708 2.61866 5.9308 2.65794 5.9553 2.70225C5.9798 2.74657 5.99457 2.79502 5.99876 2.84475C6.00295 2.89449 5.99647 2.94451 5.9797 2.99186Z" fill="#249573"/>
</svg>
