<svg width="8" height="9" viewBox="0 0 8 9" fill="none" xmlns="http://www.w3.org/2000/svg">
<path fill-rule="evenodd" clip-rule="evenodd" d="M3.54661 0.866895C3.79614 0.378705 4.20331 0.3767 4.45381 0.866895L7.89885 7.61234C8.14837 8.10053 7.92061 8.5 7.3877 8.5H0.61272C0.0798128 8.5 -0.148921 8.10253 0.101574 7.61234L3.54661 0.866895ZM3.65827 5.74885C3.74896 5.84284 3.87196 5.89565 4.00021 5.89565C4.12846 5.89565 4.25146 5.84284 4.34215 5.74885C4.43284 5.65485 4.48379 5.52736 4.48379 5.39443V3.40122C4.48379 3.26829 4.43284 3.1408 4.34215 3.0468C4.25146 2.95281 4.12846 2.9 4.00021 2.9C3.87196 2.9 3.74896 2.95281 3.65827 3.0468C3.56758 3.1408 3.51663 3.26829 3.51663 3.40122V5.39443C3.51663 5.52736 3.56758 5.65485 3.65827 5.74885ZM3.65827 7.25251C3.74896 7.34651 3.87196 7.39932 4.00021 7.39932C4.12846 7.39932 4.25146 7.34651 4.34215 7.25251C4.43284 7.15852 4.48379 7.03103 4.48379 6.8981C4.48379 6.76516 4.43284 6.63768 4.34215 6.54368C4.25146 6.44968 4.12846 6.39687 4.00021 6.39687C3.87196 6.39687 3.74896 6.44968 3.65827 6.54368C3.56758 6.63768 3.51663 6.76516 3.51663 6.8981C3.51663 7.03103 3.56758 7.15852 3.65827 7.25251Z" fill="white"/>
</svg>
