<svg width="18" height="14" viewBox="0 0 18 14" fill="none" xmlns="http://www.w3.org/2000/svg">
<path d="M2 2V12H16V2H2ZM16 0C17.1 0 18 0.9 18 2V12C18 13.1 17.1 14 16 14H2C0.9 14 0 13.1 0 12V2C0 0.9 0.9 0 2 0H16Z" fill="black"/>
<path fill-rule="evenodd" clip-rule="evenodd" d="M2.498 1.5H0.124C0.273 1.94 0.523 2.354 0.874 2.705L6.756 8.586C7.04547 8.87572 7.38921 9.10556 7.76756 9.26237C8.1459 9.41918 8.55144 9.4999 8.961 9.4999C9.37056 9.4999 9.7761 9.41918 10.1544 9.26237C10.5328 9.10556 10.8765 8.87572 11.166 8.586L17.048 2.705C17.398 2.354 17.648 1.94 17.797 1.5H15.424L9.752 7.172C9.64808 7.27598 9.52469 7.35847 9.38889 7.41475C9.25308 7.47103 9.10751 7.5 8.9605 7.5C8.81349 7.5 8.66792 7.47103 8.53212 7.41475C8.39631 7.35847 8.27292 7.27598 8.169 7.172L2.498 1.5Z" fill="black"/>
</svg>
