<svg width="126" height="32" viewBox="0 0 126 32" fill="none" xmlns="http://www.w3.org/2000/svg">
<path d="M85.008 22.8038C84.9964 22.3751 85.0723 21.9485 85.2309 21.5501C85.3895 21.1517 85.6275 20.7899 85.9305 20.4866C86.2335 20.1834 86.595 19.9451 86.9931 19.7863C87.3911 19.6276 87.8173 19.5517 88.2456 19.5632C88.6741 19.5516 89.1005 19.6274 89.4987 19.7861C89.897 19.9448 90.2587 20.183 90.562 20.4862C90.8652 20.7895 91.1036 21.1514 91.2626 21.5498C91.4215 21.9483 91.4977 22.3749 91.4865 22.8038C91.5002 23.2335 91.4257 23.6614 91.2677 24.0612C91.1096 24.4609 90.8714 24.824 90.5677 25.128C90.264 25.432 89.9012 25.6704 89.5018 25.8286C89.1025 25.9868 88.6749 26.0613 88.2456 26.0476C87.8165 26.061 87.3893 25.9862 86.9902 25.8279C86.5912 25.6696 86.2287 25.4311 85.9254 25.1271C85.622 24.8231 85.384 24.4602 85.2262 24.0606C85.0685 23.661 84.9942 23.2332 85.008 22.8038Z" fill="#E17350"/>
<path d="M96.0894 20.9238C96.0894 17.1985 99.014 15.2697 106.59 14.8691C106.39 13.6704 105.26 13.1406 103.401 13.1406C102.006 13.1406 100.609 13.6058 98.6137 14.5363L96.6188 10.8111C99.1431 9.41208 101.738 8.61407 104.527 8.61407C109.247 8.61407 112.303 10.9435 112.303 16.3973V25.6441H107.652L107.252 23.9156H107.119C105.492 25.1142 103.53 26.0447 101.47 26.0447C98.0165 26.0479 96.0894 23.6539 96.0894 20.9238ZM106.59 20.3939V18.2647C102.536 18.3972 101.538 19.3309 101.538 20.4617C101.538 21.2274 102.135 21.6604 103.333 21.6604C104.663 21.6572 105.693 21.0594 106.59 20.3939Z" fill="#E17350"/>
<path d="M119.686 13.4733H113.372V9.01462H125.403V25.6472H119.686V13.4733ZM118.689 3.4284C118.689 1.43171 120.219 0.035965 122.346 0.035965C124.473 0.035965 126 1.43494 126 3.4284C126 5.42186 124.47 6.753 122.346 6.753C120.222 6.753 118.689 5.42509 118.689 3.4284Z" fill="#E17350"/>
<path d="M0 20.8349C0 17.1096 2.92452 15.1808 10.5006 14.7802C10.3004 13.5815 9.17065 13.0517 7.31134 13.0517C5.91686 13.0517 4.51915 13.5169 2.52427 14.4474L0.529391 10.7222C3.05366 9.32322 5.64894 8.52518 8.4379 8.52518C13.1572 8.52518 16.2141 10.8546 16.2141 16.3084V25.5552H11.5626L11.1623 23.8267H11.0299C9.40305 25.0253 7.44045 25.9558 5.38101 25.9558C1.92709 25.9558 0 23.5617 0 20.8349ZM10.5038 20.3018V18.1726C6.44946 18.3051 5.45203 19.2356 5.45203 20.3664C5.45203 21.1321 6.04921 21.565 7.24678 21.565C8.57347 21.565 9.60641 20.9673 10.5038 20.3018Z" fill="#3A3A3A"/>
<path d="M18.6573 17.2431C18.6573 11.7215 23.2443 8.52941 28.3961 8.52941C30.9882 8.52941 33.4802 9.08188 34.8779 10.413L32.189 14.1092C31.1694 13.4229 29.9597 13.0758 28.7318 13.1173C26.2398 13.1173 24.5096 14.7133 24.5096 17.2431C24.5096 19.7729 26.2043 21.369 28.5317 21.369C30.1618 21.369 31.4885 20.6711 32.6183 19.97L34.8779 23.5627C32.9094 25.1173 30.4742 25.9609 27.9668 25.9568C22.7117 25.9568 18.6573 22.7647 18.6573 17.2431Z" fill="#3A3A3A"/>
<path d="M36.6213 18.5062V13.3821L36.7665 9.12373L37.312 3.93494H42.338V8.92342H49.4524L51.0212 13.3821H42.338V18.4061C42.338 20.7679 43.4355 21.4981 45.5627 21.4981C46.5933 21.4875 47.6151 21.3074 48.5873 20.965L49.5848 25.0908C47.7956 25.637 45.9385 25.9285 44.0682 25.9567C38.6162 25.9567 36.6213 22.9649 36.6213 18.5062Z" fill="#3A3A3A"/>
<path d="M50.44 31.4784L51.4375 27.1555C51.8245 27.2812 52.2281 27.3487 52.635 27.3558C54.3975 27.3558 55.2949 26.6902 55.7242 25.6919L55.9889 24.9617L49.01 8.93003H54.659L56.9863 15.3175C57.5512 16.9136 58.016 18.5775 58.4809 20.3739H58.6132C59.0135 18.6776 59.5429 16.9814 60.0432 15.3175L62.0381 8.93003H67.4223L61.173 25.2945C59.4105 29.7854 57.4512 31.8144 53.0966 31.8144C52.2004 31.8166 51.3076 31.7037 50.44 31.4784Z" fill="#3A3A3A"/>
<path d="M65.8537 8.92721H71.5704L73.7299 16.1773C74.227 17.8413 74.6273 19.5698 75.0921 21.3661H75.2245C75.6893 19.5698 76.0896 17.8413 76.5867 16.1773L78.7462 8.92721H84.195L78.4137 25.5598H71.8351L65.8537 8.92721Z" fill="#3A3A3A"/>
</svg>
