<svg width="19" height="14" viewBox="0 0 19 14" fill="none" xmlns="http://www.w3.org/2000/svg">
<path d="M13.9999 10V11.994C13.9999 13.103 13.1019 14 11.9939 14H2.00593C1.74246 14.0001 1.48155 13.9483 1.23811 13.8476C0.994675 13.7468 0.773481 13.5991 0.587181 13.4128C0.400881 13.2264 0.253126 13.0053 0.152361 12.7618C0.0515957 12.5184 -0.000200272 12.2575 -6.86646e-05 11.994V2.006C-0.000200272 1.74253 0.0515957 1.48162 0.152361 1.23818C0.253126 0.994743 0.400881 0.773551 0.587181 0.587251C0.773481 0.40095 0.994675 0.253195 1.23811 0.15243C1.48155 0.0516659 1.74246 -0.000131189 2.00593 2.49523e-07H11.9939C12.2574 -0.000131189 12.5183 0.0516659 12.7617 0.15243C13.0052 0.253195 13.2264 0.40095 13.4127 0.587251C13.599 0.773551 13.7467 0.994743 13.8475 1.23818C13.9483 1.48162 14.0001 1.74253 13.9999 2.006V4H11.9969C11.9969 2.825 11.9949 2 11.9939 2C11.9939 2 1.99993 2.002 1.99993 2.006C1.99993 2.006 2.00193 12 2.00593 12C2.00593 12 11.9999 11.998 11.9999 11.994V10H13.9999Z" fill="black"/>
<path fill-rule="evenodd" clip-rule="evenodd" d="M12.9999 1H0.999929V4H12.9999V1ZM16.7089 4.293L18.7029 6.288C18.7971 6.38102 18.8719 6.4918 18.9229 6.61394C18.974 6.73608 19.0002 6.86713 19.0002 6.9995C19.0002 7.13187 18.974 7.26292 18.9229 7.38506C18.8719 7.5072 18.7971 7.61799 18.7029 7.711L16.7089 9.708C16.5213 9.89492 16.2673 9.99988 16.0024 9.99988C15.7376 9.99988 15.4835 9.89492 15.2959 9.708C14.9059 9.317 14.9059 8.683 15.2959 8.293L16.5879 7L15.2959 5.707C15.1181 5.51768 15.021 5.26661 15.025 5.00692C15.0291 4.74724 15.134 4.49931 15.3175 4.31559C15.5011 4.13188 15.749 4.0268 16.0087 4.02258C16.2683 4.01837 16.5195 4.11535 16.7089 4.293Z" fill="black"/>
<path d="M6.99993 6H16.9999C17.5522 6 17.9999 6.44772 17.9999 7C17.9999 7.55229 17.5522 8 16.9999 8H6.99993C6.44765 8 5.99993 7.55229 5.99993 7C5.99993 6.44772 6.44765 6 6.99993 6Z" fill="black"/>
</svg>
