<svg width="18" height="15" viewBox="0 0 18 15" fill="none" xmlns="http://www.w3.org/2000/svg">
<path d="M17.7999 4.11033V11.95C17.7999 12.6794 17.5102 13.3788 16.9944 13.8946C16.4787 14.4103 15.7792 14.7 15.0499 14.7H2.94989C2.22055 14.7 1.52107 14.4103 1.00535 13.8946C0.489621 13.3788 0.19989 12.6794 0.19989 11.95V4.11033L8.72049 9.12413C8.80514 9.17405 8.90162 9.20038 8.99989 9.20038C9.09816 9.20038 9.19464 9.17405 9.27929 9.12413L17.7999 4.11033ZM15.0499 0.400024C15.7266 0.399918 16.3795 0.649292 16.8838 1.10044C17.3881 1.55159 17.7084 2.17283 17.7834 2.84533L8.72049 7.32895L0.21639 2.84533C0.291364 2.17283 0.611646 1.55159 1.11596 1.10044C1.62028 0.649292 2.27323 0.399918 2.94989 0.400024H15.0499Z" fill="black"/>
</svg>
