<svg width="16" height="20" viewBox="0 0 16 20" fill="none" xmlns="http://www.w3.org/2000/svg">
<path d="M8 19.5C7.46957 19.5 6.96086 19.2893 6.58579 18.9142C6.21071 18.5391 6 18.0304 6 17.5H10C10 18.0304 9.78929 18.5391 9.41421 18.9142C9.03914 19.2893 8.53043 19.5 8 19.5ZM16 16.5H0V15.5L2 13.5V8.5C1.97013 7.05887 2.37961 5.64278 3.174 4.44C3.95922 3.29542 5.1467 2.48854 6.5 2.18V1.5C6.5 1.10218 6.65804 0.720644 6.93934 0.43934C7.22064 0.158035 7.60218 0 8 0C8.39782 0 8.77936 0.158035 9.06066 0.43934C9.34196 0.720644 9.5 1.10218 9.5 1.5V2.18C10.8522 2.4911 12.038 3.29924 12.822 4.444C13.6179 5.64479 14.0288 7.05968 14 8.5V13.5L16 15.5V16.5Z" fill="black" fill-opacity="0.87"/>
</svg>
