<svg width="16" height="16" viewBox="0 0 16 16" fill="none" xmlns="http://www.w3.org/2000/svg">
<path fill-rule="evenodd" clip-rule="evenodd" d="M8.00001 16C12.4183 16 16 12.4183 16 8.00001C16 3.58173 12.4183 0 8.00001 0C3.58173 0 0 3.58173 0 8.00001C0 12.4183 3.58173 16 8.00001 16ZM8.04195 3.60115C8.04195 3.13712 7.66578 2.76094 7.20174 2.76094C6.73771 2.76094 6.36153 3.13712 6.36153 3.60115V9.35053L9.60838 12.5974C9.9365 12.9255 10.4685 12.9255 10.7966 12.5974C11.1247 12.2693 11.1247 11.7373 10.7966 11.4091L8.04195 8.65448V3.60115Z" fill="#FF991F"/>
</svg>
