<svg width="40" height="40" viewBox="0 0 40 40" fill="none" xmlns="http://www.w3.org/2000/svg">
<circle cx="20" cy="20" r="20" fill="#FEF8F6"/>
<g clip-path="url(#clip0_1927_15183)">
<path d="M20.5013 21.2107L19.978 19.9321L29.3938 16.5493L29.6175 17.0966L20.5013 21.2107Z" fill="#A63E1C"/>
<path d="M20.2763 22.0989C21.0712 22.0989 21.7156 21.4545 21.7156 20.6595C21.7156 19.8646 21.0712 19.2202 20.2763 19.2202C19.4814 19.2202 18.8369 19.8646 18.8369 20.6595C18.8369 21.4545 19.4814 22.0989 20.2763 22.0989Z" fill="#A63E1C"/>
<path d="M9.06884 26.045C8.15722 24.1518 7.74095 22.0582 7.859 19.9602C7.97705 17.8622 8.62557 15.8285 9.74383 14.0495C10.8621 12.2705 12.4135 10.8043 14.2528 9.78829C16.0922 8.77227 18.1593 8.23963 20.2606 8.24023V9.77807C17.9737 9.77836 15.7451 10.4989 13.8909 11.8373C12.0367 13.1758 10.6511 15.0642 9.93079 17.2347C9.04566 19.9137 9.23299 22.8315 10.4534 25.3753C10.524 25.5196 10.5478 25.6823 10.5217 25.8408C10.4956 25.9993 10.4208 26.1458 10.3077 26.2599C10.2369 26.3313 10.1526 26.3881 10.0598 26.4267C9.96686 26.4653 9.86722 26.4851 9.76661 26.4849C9.62065 26.4849 9.47769 26.4436 9.35422 26.3657C9.23075 26.2879 9.13181 26.1767 9.06884 26.045ZM30.212 26.2592C30.0991 26.1454 30.0245 25.9993 29.9985 25.8411C29.9725 25.6829 29.9964 25.5206 30.067 25.3767C31.2874 22.8329 31.475 19.9152 30.5903 17.236C29.87 15.0656 28.4844 13.1772 26.6302 11.8387C24.776 10.5002 22.5474 9.77973 20.2606 9.77944V8.24023C22.9571 8.24036 25.5804 9.11783 27.7344 10.7402C29.8884 12.3625 31.456 14.6416 32.2007 17.2333C33.0372 20.1643 32.7694 23.3003 31.4482 26.0471C31.3854 26.1784 31.2866 26.2892 31.1633 26.3666C31.04 26.444 30.8973 26.4848 30.7518 26.4842C30.6514 26.4843 30.5521 26.4645 30.4595 26.426C30.3668 26.3875 30.2827 26.331 30.212 26.2599V26.2592Z" fill="#A63E1C"/>
</g>
<defs>
<clipPath id="clip0_1927_15183">
<rect width="25.5467" height="18.9288" fill="white" transform="translate(7.5 7.89795)"/>
</clipPath>
</defs>
</svg>
