<svg width="15" height="9" viewBox="0 0 15 9" fill="none" xmlns="http://www.w3.org/2000/svg">
<path fill-rule="evenodd" clip-rule="evenodd" d="M10.8229 0.558268C10.7269 0.462112 10.6129 0.385889 10.4874 0.33399C10.3618 0.282092 10.2272 0.255543 10.0914 0.255871C9.95553 0.2562 9.82109 0.2834 9.69579 0.335906C9.5705 0.388411 9.45683 0.465184 9.36133 0.561804C9.16669 0.758299 9.05744 1.02365 9.0573 1.30023C9.05717 1.57681 9.16617 1.84227 9.36062 2.03895L11.5576 4.25573L9.36062 6.47251C9.16617 6.66919 9.05717 6.93465 9.0573 7.21123C9.05744 7.48781 9.16669 7.75316 9.36133 7.94966C9.45706 8.04652 9.57106 8.12343 9.69672 8.17595C9.82237 8.22846 9.9572 8.25553 10.0934 8.2556C10.2296 8.25566 10.3644 8.22872 10.4901 8.17633C10.6158 8.12393 10.7299 8.04713 10.8257 7.95036L13.7546 4.99466C13.9486 4.79766 14.0574 4.53224 14.0574 4.25573C14.0574 3.97922 13.9486 3.7138 13.7546 3.5168L10.8257 0.561096L10.8229 0.558268Z" fill="#42526E"/>
<path fill-rule="evenodd" clip-rule="evenodd" d="M11.559 3.12153L1.5584 3.12082C1.29316 3.12121 1.03888 3.22674 0.851325 3.4143C0.663767 3.60186 0.558229 3.85613 0.557847 4.12138C0.557847 4.67292 1.00615 5.12123 1.5584 5.12193L11.5583 5.12193C11.7556 5.12096 11.9483 5.06174 12.1121 4.95171C12.2759 4.84168 12.4036 4.68573 12.4791 4.50342C12.5546 4.32112 12.5746 4.12057 12.5366 3.92694C12.4986 3.73331 12.4042 3.55521 12.2654 3.41498C12.0781 3.22741 11.8241 3.12186 11.559 3.12153Z" fill="#42526E"/>
</svg>
