<svg width="19" height="19" viewBox="0 0 19 19" fill="none" xmlns="http://www.w3.org/2000/svg">
<path d="M17.4661 18.9999L12.3211 13.8649V13.0519L12.0431 12.7639C10.7282 13.8923 9.02716 14.4675 7.29721 14.3686C5.56725 14.2696 3.9429 13.5043 2.76518 12.2333C1.58745 10.9623 0.947959 9.28439 0.980952 7.55192C1.01395 5.81945 1.71686 4.16714 2.94212 2.94188C4.16738 1.71662 5.8197 1.0137 7.55217 0.980708C9.28463 0.947715 10.9625 1.58721 12.2335 2.76493C13.5046 3.94266 14.2699 5.56701 14.3688 7.29696C14.4677 9.02692 13.8926 10.7279 12.7641 12.0429L13.0521 12.3209H13.8651L19.0001 17.4659L17.4671 18.9999H17.4661ZM7.69012 3.05787C6.77423 3.05787 5.87892 3.32945 5.11738 3.83827C4.35583 4.34708 3.76227 5.07029 3.41173 5.91644C3.06119 6.76258 2.96942 7.69367 3.14803 8.59197C3.32664 9.49027 3.7676 10.3154 4.41515 10.9631C5.06271 11.6108 5.88778 12.052 6.78604 12.2308C7.6843 12.4096 8.61541 12.318 9.46163 11.9676C10.3079 11.6173 11.0312 11.0239 11.5402 10.2624C12.0491 9.50101 12.3209 8.60576 12.3211 7.68987C12.3198 6.46197 11.8315 5.28472 10.9633 4.41637C10.0952 3.54802 8.91802 3.05946 7.69012 3.05787Z" fill="black" fill-opacity="0.87"/>
</svg>
