<svg width="24" height="24" viewBox="0 0 24 24" fill="none" xmlns="http://www.w3.org/2000/svg">
<rect width="24" height="24" fill="white" fill-opacity="0.01"/>
<path d="M15.0002 16H19.0002V6H5.00015V16H12.3332L15.0002 18V16ZM17.0002 18V20C17.0002 20.1857 16.9484 20.3678 16.8508 20.5257C16.7532 20.6837 16.6135 20.8114 16.4474 20.8944C16.2813 20.9775 16.0953 21.0126 15.9103 20.996C15.7254 20.9793 15.5487 20.9114 15.4002 20.8L11.6672 18H5.00015C4.46972 18 3.96101 17.7893 3.58594 17.4142C3.21087 17.0391 3.00015 16.5304 3.00015 16V6C3.00015 5.46957 3.21087 4.96086 3.58594 4.58579C3.96101 4.21071 4.46972 4 5.00015 4H19.0002C19.5306 4 20.0393 4.21071 20.4144 4.58579C20.7894 4.96086 21.0002 5.46957 21.0002 6V16C21.0002 16.5304 20.7894 17.0391 20.4144 17.4142C20.0393 17.7893 19.5306 18 19.0002 18H17.0002Z" fill="#091E42" fill-opacity="0.66"/>
<path fill-rule="evenodd" clip-rule="evenodd" d="M7.00015 10H17.0002V8H7.00015V10ZM7.00015 14H13.0002V12H7.00015V14Z" fill="#091E42" fill-opacity="0.66"/>
</svg>
