<svg width="29" height="27" viewBox="0 0 29 27" fill="none" xmlns="http://www.w3.org/2000/svg">
<path d="M17.9143 6.06219C18.169 6.81177 18.6496 7.46407 19.2901 7.92942C19.9306 8.39476 20.6994 8.65031 21.491 8.66095L25.6597 8.71112C21.1348 10.987 21.5754 17.2243 21.5754 17.2243L23.6237 23.7983C23.7747 24.2862 23.769 24.8092 23.6074 25.2937C23.4458 25.7782 23.1364 26.1998 22.7227 26.4994C22.309 26.7989 21.8119 26.9613 21.3012 26.9637C20.7904 26.9661 20.2918 26.8084 19.8754 26.5127L16.4731 24.103C15.8265 23.6463 15.0543 23.4012 14.2627 23.4012C13.471 23.4012 12.6988 23.6463 12.0522 24.103L8.64995 26.5127C9.56177 22.3477 6.95065 17.2243 6.95065 17.2243L1.43539 13.1146C1.02552 12.8093 0.7217 12.3831 0.566684 11.896C0.411667 11.409 0.413247 10.8856 0.571211 10.3995C0.729174 9.91344 1.03557 9.48911 1.44728 9.18624C1.85899 8.88337 2.35529 8.7172 2.86636 8.71112L7.03499 8.66022C7.8266 8.64958 8.59548 8.39403 9.23595 7.92868C9.87642 7.46334 10.357 6.81105 10.6117 6.06147L11.9482 2.11243C12.1119 1.62819 12.4233 1.20746 12.8386 0.909455C13.2539 0.611451 13.7522 0.451172 14.2634 0.451172C14.7745 0.451172 15.2728 0.611451 15.6882 0.909455C16.1035 1.20746 16.4149 1.62819 16.5786 2.11243L17.9143 6.06219Z" fill="url(#paint0_linear_2251_17511)"/>
<path d="M6.95059 17.2251L4.90445 23.7918C4.7766 24.2048 4.76026 24.6442 4.85712 25.0655C4.95398 25.4869 5.16058 25.875 5.45595 26.1907C5.75132 26.5064 6.12494 26.7383 6.5389 26.8629C6.95286 26.9875 7.39242 27.0004 7.81297 26.9003C8.10209 26.7965 8.38124 26.6668 8.64699 26.5127L9.17052 26.1419C11.8165 23.887 10.8844 20.0834 6.95059 17.2251Z" fill="url(#paint1_linear_2251_17511)"/>
<path style="mix-blend-mode:screen" opacity="0.17" d="M23.6242 23.799L21.5759 17.2251C21.5759 17.2251 21.1352 10.9878 25.6601 8.71186L21.4915 8.66169C20.6999 8.65105 19.931 8.3955 19.2906 7.93016C18.6501 7.46481 18.1695 6.81251 17.9148 6.06293L16.5783 2.11389C16.4146 1.62965 16.1032 1.20892 15.6879 0.91092C15.2726 0.612916 14.7743 0.452637 14.2631 0.452637C13.752 0.452637 13.2537 0.612916 12.8384 0.91092C12.4231 1.20892 12.1116 1.62965 11.9479 2.11389L10.6115 6.06293C10.3604 6.81439 9.88102 7.46876 9.24023 7.93475C8.59945 8.40074 7.8292 8.65512 7.03692 8.66241C5.45833 8.72349 4.46725 8.71332 2.86829 8.71332C13.2779 8.82893 21.0291 15.2 23.6242 23.799Z" fill="url(#paint2_linear_2251_17511)"/>
<path d="M21.5758 17.2239L27.0911 13.1141C27.4376 12.855 27.7093 12.5089 27.8787 12.1107C28.048 11.7126 28.109 11.2767 28.0553 10.8474C28.0016 10.4181 27.8352 10.0107 27.573 9.66652C27.3108 9.32237 26.9621 9.05378 26.5625 8.88805C26.2676 8.80182 25.9656 8.74244 25.6601 8.71063L25.0188 8.70264C21.5547 8.97386 20.0729 12.5993 21.5758 17.2239Z" fill="url(#paint3_linear_2251_17511)"/>
<defs>
<linearGradient id="paint0_linear_2251_17511" x1="7.66109" y1="26.6986" x2="20.5542" y2="3.37329" gradientUnits="userSpaceOnUse">
<stop stop-color="#FF5E00"/>
<stop offset="0.12" stop-color="#FF7310"/>
<stop offset="0.401" stop-color="#FFA034"/>
<stop offset="0.651" stop-color="#FFC14D"/>
<stop offset="0.859" stop-color="#FFD55D"/>
<stop offset="1" stop-color="#FFDD63"/>
</linearGradient>
<linearGradient id="paint1_linear_2251_17511" x1="560.403" y1="-1009.92" x2="567.92" y2="-1019.54" gradientUnits="userSpaceOnUse">
<stop stop-color="#E34F10"/>
<stop offset="0.51" stop-color="#F19D07"/>
<stop offset="1" stop-color="#FFE600"/>
</linearGradient>
<linearGradient id="paint2_linear_2251_17511" x1="12.1218" y1="18.4994" x2="20.1938" y2="3.13164" gradientUnits="userSpaceOnUse">
<stop stop-color="#FF5E00"/>
<stop offset="0.12" stop-color="#FF7310"/>
<stop offset="0.401" stop-color="#FFA034"/>
<stop offset="0.651" stop-color="#FFC14D"/>
<stop offset="0.859" stop-color="#FFD55D"/>
<stop offset="1" stop-color="#FFDD63"/>
</linearGradient>
<linearGradient id="paint3_linear_2251_17511" x1="724.436" y1="127.352" x2="732.096" y2="116.765" gradientUnits="userSpaceOnUse">
<stop stop-color="#E34F10"/>
<stop offset="0.51" stop-color="#F19D07"/>
<stop offset="1" stop-color="#FFE600"/>
</linearGradient>
</defs>
</svg>
