<svg width="32" height="32" viewBox="0 0 32 32" fill="none" xmlns="http://www.w3.org/2000/svg">
<circle cx="16" cy="16" r="15.5" fill="white" stroke="#808080"/>
<path fill-rule="evenodd" clip-rule="evenodd" d="M12.7371 15.5571L17.3301 10.9641C17.4217 10.8706 17.5309 10.7962 17.6514 10.7452C17.7719 10.6943 17.9013 10.6677 18.0322 10.667C18.163 10.6663 18.2927 10.6916 18.4137 10.7414C18.5348 10.7912 18.6447 10.8644 18.7372 10.957C18.8298 11.0495 18.903 11.1594 18.9528 11.2804C19.0026 11.4015 19.0278 11.5311 19.0272 11.662C19.0265 11.7928 18.9999 11.9223 18.9489 12.0428C18.8979 12.1633 18.8236 12.2725 18.7301 12.3641L14.8301 16.2641L18.7301 20.1641C18.9127 20.3504 19.0144 20.6012 19.013 20.862C19.0117 21.1228 18.9075 21.3726 18.7231 21.557C18.5387 21.7415 18.2889 21.8457 18.0281 21.847C17.7672 21.8483 17.5164 21.7466 17.3301 21.5641L12.7371 16.9721C12.5497 16.7845 12.4443 16.5302 12.4443 16.2651C12.4443 15.9999 12.5497 15.7456 12.7371 15.5581V15.5571Z" fill="black"/>
</svg>
