<svg width="4" height="4" viewBox="0 0 4 4" fill="none" xmlns="http://www.w3.org/2000/svg">
<path d="M3.9797 0.991863C3.96292 1.03922 3.93619 1.08296 3.90108 1.12051L1.9017 3.36542C1.86613 3.40535 1.82206 3.4379 1.7723 3.461C1.72255 3.48411 1.66819 3.49726 1.6127 3.49961C1.55721 3.50197 1.5018 3.49349 1.45 3.4747C1.39821 3.45591 1.35117 3.42723 1.31188 3.39049L0.11225 2.26804C0.0394095 2.19747 -0.000895971 2.10296 1.51163e-05 2.00486C0.000926204 1.90675 0.0429811 1.81291 0.117121 1.74354C0.191262 1.67417 0.291556 1.63482 0.396402 1.63397C0.501249 1.63312 0.602259 1.67083 0.677676 1.73898L1.5674 2.57185L3.28687 0.641593C3.32002 0.602511 3.36118 0.570025 3.40793 0.546047C3.45469 0.522069 3.5061 0.507083 3.55914 0.50197C3.61218 0.496857 3.66578 0.501721 3.71678 0.516276C3.76778 0.53083 3.81516 0.554782 3.85612 0.586721C3.89708 0.61866 3.9308 0.657941 3.9553 0.702254C3.9798 0.746567 3.99457 0.795017 3.99876 0.844752C4.00295 0.894488 3.99647 0.944507 3.9797 0.991863Z" fill="#249573"/>
</svg>
