<svg width="32" height="32" viewBox="0 0 32 32" fill="none" xmlns="http://www.w3.org/2000/svg">
<g filter="url(#filter0_d_1818_17507)">
<rect x="4" y="3" width="24" height="24" rx="10" fill="white"/>
<rect x="4.5" y="3.5" width="23" height="23" rx="9.5" stroke="#E17350"/>
</g>
<mask id="path-3-inside-1_1818_17507" fill="white">
<path fill-rule="evenodd" clip-rule="evenodd" d="M19.1851 10.399L16.0011 13.584L12.8151 10.398C12.7199 10.3049 12.5918 10.2529 12.4585 10.2535C12.3253 10.2541 12.1976 10.3071 12.1031 10.401L11.4031 11.102C11.3552 11.148 11.317 11.2031 11.2908 11.2641C11.2646 11.3251 11.2509 11.3908 11.2505 11.4572C11.2501 11.5236 11.2631 11.5894 11.2886 11.6507C11.3142 11.712 11.3517 11.7675 11.3991 11.814L14.5841 14.998L11.4001 18.184C11.3071 18.2794 11.2554 18.4076 11.2561 18.5408C11.2569 18.6741 11.31 18.8017 11.4041 18.896L12.1041 19.596C12.3101 19.803 12.6201 19.796 12.8161 19.6L16.0021 16.415L19.1861 19.6C19.2815 19.6931 19.4097 19.7448 19.543 19.744C19.6762 19.7433 19.8038 19.6901 19.8981 19.596L20.5991 18.896C20.647 18.85 20.6851 18.7948 20.7112 18.7338C20.7374 18.6727 20.751 18.6071 20.7513 18.5407C20.7515 18.4743 20.7385 18.4085 20.7129 18.3472C20.6873 18.286 20.6496 18.2305 20.6021 18.184L17.4161 14.998L20.6021 11.814C20.6953 11.7188 20.7472 11.5907 20.7466 11.4574C20.7461 11.3242 20.6931 11.1965 20.5991 11.102L19.8991 10.402C19.8522 10.354 19.7962 10.3157 19.7344 10.2895C19.6727 10.2632 19.6063 10.2495 19.5391 10.249C19.4733 10.2496 19.4083 10.2631 19.3477 10.2888C19.2871 10.3146 19.2322 10.352 19.1861 10.399H19.1851Z"/>
</mask>
<path fill-rule="evenodd" clip-rule="evenodd" d="M19.1851 10.399L16.0011 13.584L12.8151 10.398C12.7199 10.3049 12.5918 10.2529 12.4585 10.2535C12.3253 10.2541 12.1976 10.3071 12.1031 10.401L11.4031 11.102C11.3552 11.148 11.317 11.2031 11.2908 11.2641C11.2646 11.3251 11.2509 11.3908 11.2505 11.4572C11.2501 11.5236 11.2631 11.5894 11.2886 11.6507C11.3142 11.712 11.3517 11.7675 11.3991 11.814L14.5841 14.998L11.4001 18.184C11.3071 18.2794 11.2554 18.4076 11.2561 18.5408C11.2569 18.6741 11.31 18.8017 11.4041 18.896L12.1041 19.596C12.3101 19.803 12.6201 19.796 12.8161 19.6L16.0021 16.415L19.1861 19.6C19.2815 19.6931 19.4097 19.7448 19.543 19.744C19.6762 19.7433 19.8038 19.6901 19.8981 19.596L20.5991 18.896C20.647 18.85 20.6851 18.7948 20.7112 18.7338C20.7374 18.6727 20.751 18.6071 20.7513 18.5407C20.7515 18.4743 20.7385 18.4085 20.7129 18.3472C20.6873 18.286 20.6496 18.2305 20.6021 18.184L17.4161 14.998L20.6021 11.814C20.6953 11.7188 20.7472 11.5907 20.7466 11.4574C20.7461 11.3242 20.6931 11.1965 20.5991 11.102L19.8991 10.402C19.8522 10.354 19.7962 10.3157 19.7344 10.2895C19.6727 10.2632 19.6063 10.2495 19.5391 10.249C19.4733 10.2496 19.4083 10.2631 19.3477 10.2888C19.2871 10.3146 19.2322 10.352 19.1861 10.399H19.1851Z" fill="#E25C10"/>
<path d="M19.1851 10.399V9.39902H18.7708L18.4779 9.69203L19.1851 10.399ZM16.0011 13.584L15.294 14.2911L16.0012 14.9983L16.7083 14.291L16.0011 13.584ZM12.8151 10.398L13.5223 9.69087L13.5143 9.68307L12.8151 10.398ZM12.1031 10.401L11.398 9.69198L11.3955 9.69442L12.1031 10.401ZM11.4031 11.102L12.0954 11.8237L12.1031 11.8162L12.1107 11.8086L11.4031 11.102ZM11.3991 11.814L12.1062 11.1068L12.0994 11.1002L11.3991 11.814ZM14.5841 14.998L15.2915 15.7049L15.9982 14.9977L15.2911 14.2908L14.5841 14.998ZM11.4001 18.184L10.6927 17.4771L10.6842 17.4859L11.4001 18.184ZM11.4041 18.896L10.6961 19.6022L10.697 19.6031L11.4041 18.896ZM12.1041 19.596L12.8129 18.8906L12.8112 18.8889L12.1041 19.596ZM12.8161 19.6L12.1091 18.8928L12.109 18.8929L12.8161 19.6ZM16.0021 16.415L16.7093 15.708L16.0024 15.0008L15.2951 15.7078L16.0021 16.415ZM19.1861 19.6L18.4789 20.3071L18.488 20.316L19.1861 19.6ZM19.8981 19.596L20.6043 20.3041L20.6047 20.3036L19.8981 19.596ZM20.5991 18.896L19.9059 18.1753L19.8991 18.1818L19.8925 18.1884L20.5991 18.896ZM20.6021 18.184L19.895 18.8912L19.9028 18.8988L20.6021 18.184ZM17.4161 14.998L16.7092 14.2907L16.0017 14.9978L16.709 15.7051L17.4161 14.998ZM20.6021 11.814L21.3091 12.5214L21.3171 12.5132L20.6021 11.814ZM20.5991 11.102L21.3082 10.3969L21.3062 10.3949L20.5991 11.102ZM19.8991 10.402L19.1838 11.1009L19.192 11.1091L19.8991 10.402ZM19.5391 10.249L19.5458 9.24905L19.5384 9.249L19.531 9.24906L19.5391 10.249ZM19.1861 10.399V11.399H19.6062L19.9003 11.099L19.1861 10.399ZM18.4779 9.69203L15.2939 12.877L16.7083 14.291L19.8923 11.106L18.4779 9.69203ZM16.7082 12.8769L13.5222 9.69092L12.108 11.1051L15.294 14.2911L16.7082 12.8769ZM13.5143 9.68307C13.2311 9.40616 12.8504 9.25185 12.4543 9.25352L12.4627 11.2535C12.3332 11.254 12.2086 11.2036 12.116 11.113L13.5143 9.68307ZM12.4543 9.25352C12.0583 9.25519 11.6788 9.4127 11.398 9.69198L12.8083 11.1101C12.7164 11.2014 12.5923 11.253 12.4627 11.2535L12.4543 9.25352ZM11.3955 9.69442L10.6955 10.3954L12.1107 11.8086L12.8107 11.1076L11.3955 9.69442ZM10.7109 10.3804C10.5663 10.519 10.4511 10.6853 10.372 10.8693L12.2095 11.659C12.1829 11.721 12.1441 11.777 12.0954 11.8237L10.7109 10.3804ZM10.372 10.8693C10.293 11.0533 10.2516 11.2513 10.2505 11.4516L12.2505 11.4628C12.2501 11.5303 12.2362 11.597 12.2095 11.659L10.372 10.8693ZM10.2505 11.4516C10.2494 11.6518 10.2885 11.8503 10.3655 12.0352L12.2117 11.2662C12.2377 11.3285 12.2509 11.3953 12.2505 11.4628L10.2505 11.4516ZM10.3655 12.0352C10.4425 12.2201 10.5558 12.3876 10.6988 12.5279L12.0994 11.1002C12.1476 11.1474 12.1858 11.2039 12.2117 11.2662L10.3655 12.0352ZM10.6921 12.5212L13.8771 15.7052L15.2911 14.2908L12.1061 11.1068L10.6921 12.5212ZM13.8768 14.2911L10.6928 17.4771L12.1075 18.8909L15.2915 15.7049L13.8768 14.2911ZM10.6842 17.4859C10.4077 17.7694 10.2539 18.1504 10.2561 18.5465L12.2561 18.5352C12.2568 18.6648 12.2065 18.7894 12.1161 18.8822L10.6842 17.4859ZM10.2561 18.5465C10.2584 18.9425 10.4164 19.3218 10.6961 19.6022L12.1122 18.1899C12.2037 18.2816 12.2554 18.4057 12.2561 18.5352L10.2561 18.5465ZM10.697 19.6031L11.397 20.3031L12.8112 18.8889L12.1112 18.1889L10.697 19.6031ZM11.3953 20.3014C11.9971 20.9061 12.9416 20.8888 13.5232 20.3071L12.109 18.8929C12.1965 18.8055 12.3226 18.7496 12.4609 18.7492C12.6023 18.7487 12.729 18.8063 12.8129 18.8906L11.3953 20.3014ZM13.5231 20.3072L16.7091 17.1222L15.2951 15.7078L12.1091 18.8928L13.5231 20.3072ZM15.2949 17.122L18.4789 20.307L19.8933 18.893L16.7093 15.708L15.2949 17.122ZM18.488 20.316C18.7715 20.5925 19.1525 20.7462 19.5486 20.744L19.5373 18.7441C19.6669 18.7433 19.7915 18.7936 19.8843 18.8841L18.488 20.316ZM19.5486 20.744C19.9446 20.7418 20.3239 20.5838 20.6043 20.3041L19.192 18.888C19.2837 18.7965 19.4078 18.7448 19.5373 18.7441L19.5486 20.744ZM20.6047 20.3036L21.3057 19.6036L19.8925 18.1884L19.1915 18.8884L20.6047 20.3036ZM21.2924 19.6167C21.4367 19.4779 21.5517 19.3114 21.6305 19.1273L19.7919 18.3402C19.8185 18.2782 19.8572 18.2221 19.9059 18.1753L21.2924 19.6167ZM21.6305 19.1273C21.7094 18.9432 21.7504 18.7451 21.7513 18.5449L19.7513 18.5364C19.7516 18.469 19.7654 18.4022 19.7919 18.3402L21.6305 19.1273ZM21.7513 18.5449C21.7521 18.3446 21.7127 18.1462 21.6355 17.9614L19.7903 18.733C19.7643 18.6708 19.751 18.6039 19.7513 18.5364L21.7513 18.5449ZM21.6355 17.9614C21.5582 17.7766 21.4446 17.6093 21.3015 17.4692L19.9028 18.8988C19.8546 18.8517 19.8163 18.7953 19.7903 18.733L21.6355 17.9614ZM21.3092 17.4769L18.1232 14.2909L16.709 15.7051L19.895 18.8911L21.3092 17.4769ZM18.123 15.7054L21.309 12.5214L19.8952 11.1067L16.7092 14.2907L18.123 15.7054ZM21.3171 12.5132C21.594 12.23 21.7483 11.8493 21.7466 11.4532L19.7467 11.4616C19.7461 11.3321 19.7966 11.2075 19.8872 11.1149L21.3171 12.5132ZM21.7466 11.4532C21.745 11.0571 21.5875 10.6777 21.3082 10.3969L19.8901 11.8072C19.7987 11.7153 19.7472 11.5912 19.7467 11.4616L21.7466 11.4532ZM21.3062 10.3949L20.6062 9.69492L19.192 11.1091L19.892 11.8091L21.3062 10.3949ZM20.6145 9.70323C20.4752 9.56066 20.309 9.44711 20.1256 9.36915L19.3433 11.2098C19.2835 11.1844 19.2293 11.1473 19.1838 11.1008L20.6145 9.70323ZM20.1256 9.36915C19.9422 9.29119 19.7451 9.25037 19.5458 9.24905L19.5325 11.249C19.4674 11.2486 19.4032 11.2353 19.3433 11.2098L20.1256 9.36915ZM19.531 9.24906C19.3335 9.25067 19.1383 9.29125 18.9566 9.36847L19.7388 11.2092C19.6782 11.2349 19.6131 11.2485 19.5473 11.249L19.531 9.24906ZM18.9566 9.36847C18.7749 9.4457 18.6102 9.55804 18.472 9.69906L19.9003 11.099C19.8542 11.146 19.7993 11.1834 19.7388 11.2092L18.9566 9.36847ZM19.1861 9.39902H19.1851V11.399H19.1861V9.39902Z" fill="#E17350" mask="url(#path-3-inside-1_1818_17507)"/>
<defs>
<filter id="filter0_d_1818_17507" x="0" y="0" width="32" height="32" filterUnits="userSpaceOnUse" color-interpolation-filters="sRGB">
<feFlood flood-opacity="0" result="BackgroundImageFix"/>
<feColorMatrix in="SourceAlpha" type="matrix" values="0 0 0 0 0 0 0 0 0 0 0 0 0 0 0 0 0 0 127 0" result="hardAlpha"/>
<feOffset dy="1"/>
<feGaussianBlur stdDeviation="2"/>
<feComposite in2="hardAlpha" operator="out"/>
<feColorMatrix type="matrix" values="0 0 0 0 0 0 0 0 0 0 0 0 0 0 0 0 0 0 0.24 0"/>
<feBlend mode="normal" in2="BackgroundImageFix" result="effect1_dropShadow_1818_17507"/>
<feBlend mode="normal" in="SourceGraphic" in2="effect1_dropShadow_1818_17507" result="shape"/>
</filter>
</defs>
</svg>
