<svg width="16" height="16" viewBox="0 0 16 16" fill="none" xmlns="http://www.w3.org/2000/svg">
<path fill-rule="evenodd" clip-rule="evenodd" d="M8 15.5C12.1421 15.5 15.5 12.1421 15.5 8C15.5 3.85786 12.1421 0.5 8 0.5C3.85786 0.5 0.5 3.85786 0.5 8C0.5 12.1421 3.85786 15.5 8 15.5ZM6.94385 8.01154L5.83775 9.12424C5.76634 9.19363 5.70946 9.27655 5.67044 9.36816C5.63141 9.45976 5.61102 9.55822 5.61045 9.65779C5.60987 9.75737 5.62914 9.85606 5.66711 9.94811C5.70508 10.0402 5.761 10.1237 5.83161 10.1939C5.90221 10.2641 5.9861 10.3196 6.07836 10.357C6.17062 10.3945 6.26942 10.4132 6.36899 10.4121C6.46855 10.4109 6.5669 10.39 6.65828 10.3504C6.74967 10.3109 6.83226 10.2535 6.90125 10.1817L8.00206 9.07436L9.0815 10.1585C9.22184 10.2995 9.41244 10.379 9.61139 10.3795C9.81035 10.38 10.0013 10.3015 10.1424 10.1611C10.2834 10.0208 10.3629 9.8302 10.3634 9.63124C10.3639 9.43229 10.2853 9.24129 10.145 9.10026L9.05954 8.01057L10.1713 6.89223C10.3075 6.75041 10.3826 6.56072 10.3804 6.36405C10.3781 6.16738 10.2987 5.97946 10.1593 5.84078C10.0198 5.70209 9.83142 5.62375 9.63474 5.62262C9.43806 5.62149 9.24881 5.69766 9.10775 5.83474L8.00109 6.94799L6.875 5.81751C6.73385 5.68056 6.54455 5.60454 6.34788 5.60582C6.15121 5.6071 5.96291 5.68558 5.82355 5.82435C5.68419 5.96312 5.60491 6.15108 5.6028 6.34774C5.60068 6.54441 5.6759 6.73403 5.81225 6.87576L6.94385 8.01154Z" fill="#DA0D00"/>
</svg>
