<svg width="17" height="16" viewBox="0 0 17 16" fill="none" xmlns="http://www.w3.org/2000/svg">
<path fill-rule="evenodd" clip-rule="evenodd" d="M2.92901 0H13.8579C14.5826 0 15.2775 0.210714 15.7899 0.585786C16.3023 0.960859 16.5902 1.46957 16.5902 2V14C16.5902 14.5304 16.3023 15.0391 15.7899 15.4142C15.2775 15.7893 14.5826 16 13.8579 16H2.92901C2.20438 16 1.50942 15.7893 0.99703 15.4142C0.484637 15.0391 0.196777 14.5304 0.196777 14V2C0.196777 1.46957 0.484637 0.960859 0.99703 0.585786C1.50942 0.210714 2.20438 0 2.92901 0ZM4.97819 4C4.79703 4 4.62329 4.05268 4.49519 4.14645C4.36709 4.24021 4.29513 4.36739 4.29513 4.5V5.5C4.29513 5.63261 4.36709 5.75979 4.49519 5.85355C4.62329 5.94732 4.79703 6 4.97819 6H11.8088C11.9899 6 12.1637 5.94732 12.2918 5.85355C12.4199 5.75979 12.4918 5.63261 12.4918 5.5V4.5C12.4918 4.36739 12.4199 4.24021 12.2918 4.14645C12.1637 4.05268 11.9899 4 11.8088 4H4.97819ZM4.97819 8C4.79703 8 4.62329 8.05268 4.49519 8.14645C4.36709 8.24021 4.29513 8.36739 4.29513 8.5V9.5C4.29513 9.63261 4.36709 9.75979 4.49519 9.85355C4.62329 9.94732 4.79703 10 4.97819 10H9.07653C9.25769 10 9.43143 9.94732 9.55953 9.85355C9.68763 9.75979 9.75959 9.63261 9.75959 9.5V8.5C9.75959 8.36739 9.68763 8.24021 9.55953 8.14645C9.43143 8.05268 9.25769 8 9.07653 8H4.97819Z" fill="#42526E"/>
</svg>
