<svg width="10" height="10" viewBox="0 0 10 10" fill="none" xmlns="http://www.w3.org/2000/svg">
<path fill-rule="evenodd" clip-rule="evenodd" d="M5.00016 9.66634C3.76249 9.66634 2.5755 9.17468 1.70033 8.29951C0.825161 7.42434 0.333496 6.23735 0.333496 4.99967C0.333496 3.762 0.825161 2.57501 1.70033 1.69984C2.5755 0.824673 3.76249 0.333008 5.00016 0.333008C6.23784 0.333008 7.42482 0.824673 8.29999 1.69984C9.17516 2.57501 9.66683 3.762 9.66683 4.99967C9.66683 6.23735 9.17516 7.42434 8.29999 8.29951C7.42482 9.17468 6.23784 9.66634 5.00016 9.66634ZM5.00016 4.70801C4.84545 4.70801 4.69708 4.76947 4.58768 4.87886C4.47829 4.98826 4.41683 5.13663 4.41683 5.29134V6.74967C4.41683 6.90438 4.47829 7.05276 4.58768 7.16215C4.69708 7.27155 4.84545 7.33301 5.00016 7.33301C5.15487 7.33301 5.30325 7.27155 5.41264 7.16215C5.52204 7.05276 5.5835 6.90438 5.5835 6.74967V5.29134C5.5835 5.13663 5.52204 4.98826 5.41264 4.87886C5.30325 4.76947 5.15487 4.70801 5.00016 4.70801ZM5.00016 4.05176C5.21289 4.05176 5.4169 3.96725 5.56732 3.81683C5.71774 3.66641 5.80225 3.4624 5.80225 3.24967C5.80225 3.03695 5.71774 2.83294 5.56732 2.68252C5.4169 2.5321 5.21289 2.44759 5.00016 2.44759C4.78744 2.44759 4.58342 2.5321 4.433 2.68252C4.28258 2.83294 4.19808 3.03695 4.19808 3.24967C4.19808 3.4624 4.28258 3.66641 4.433 3.81683C4.58342 3.96725 4.78744 4.05176 5.00016 4.05176Z" fill="white"/>
</svg>
