<svg width="134" height="125" viewBox="0 0 134 125" fill="none" xmlns="http://www.w3.org/2000/svg">
<ellipse cx="68.9707" cy="62.5763" rx="62.5" ry="62.3614" fill="#F5F5F5"/>
<path d="M53.9268 11.2785L54.721 13.5911L54.7413 13.6505L54.7996 13.6737L56.9767 14.5418L54.7996 15.4099L54.7413 15.4331L54.721 15.4925L53.9268 17.8051L53.1327 15.4925L53.1124 15.4331L53.0541 15.4099L50.877 14.5418L53.0541 13.6737L53.1124 13.6505L53.1327 13.5911L53.9268 11.2785Z" stroke="#B94A4A" stroke-width="0.273523"/>
<rect x="32.7285" y="30.7812" width="100.383" height="28.6535" rx="5.47046" fill="url(#paint0_linear_3719_22001)"/>
<path d="M53.0395 45.2344C53.0395 49.144 49.8629 52.3144 45.9431 52.3144C42.0233 52.3144 38.8468 49.144 38.8468 45.2344C38.8468 41.3248 42.0233 38.1544 45.9431 38.1544C49.8629 38.1544 53.0395 41.3248 53.0395 45.2344Z" fill="white" stroke="#380505" stroke-width="0.547046"/>
<rect x="58.6504" y="39.9102" width="35.8329" height="2.53571" rx="1.26785" fill="white"/>
<rect x="58.6504" y="48.0234" width="59.4674" height="2.53571" rx="1.26785" fill="#380505"/>
<line x1="37.6523" y1="31.0526" x2="115.417" y2="31.0526" stroke="black" stroke-width="0.547046"/>
<rect width="99.2888" height="28.3412" rx="5.47046" transform="matrix(-1 0 0 1 105.212 66.2598)" fill="url(#paint1_linear_3719_22001)"/>
<ellipse rx="7.28956" ry="7.2734" transform="matrix(-1 0 0 1 92.1411 80.5566)" fill="white"/>
<rect x="79.5732" y="85.8223" width="61.3329" height="2.50807" rx="1.25403" transform="rotate(180 79.5732 85.8223)" fill="white"/>
<rect x="79.5732" y="77.7969" width="29.4096" height="2.50807" rx="1.25403" transform="rotate(180 79.5732 77.7969)" fill="#380505"/>
<line y1="-0.273523" x2="76.9174" y2="-0.273523" transform="matrix(-1 0 0 1 87.1133 94.6016)" stroke="black" stroke-width="0.547046"/>
<path fill-rule="evenodd" clip-rule="evenodd" d="M96.1985 77.7673C95.904 77.4734 95.4265 77.4734 95.132 77.7673L91.1072 81.7831L88.9026 79.5833C88.6081 79.2895 88.1306 79.2895 87.8361 79.5833C87.5416 79.8772 87.5416 80.3536 87.8361 80.6474L90.5146 83.32C90.658 83.4631 90.8448 83.5365 91.0328 83.5402C91.2646 83.5785 91.511 83.5084 91.6898 83.33L96.1985 78.8313C96.493 78.5375 96.493 78.0611 96.1985 77.7673Z" fill="#D78585"/>
<path d="M1 33.2422C2.14727 34.2979 4.90756 36.1546 6.77058 35.1361C9.09936 33.8629 10.5383 34.07 11.0577 36.1421C11.5771 38.2142 13.476 40.0049 15.0334 38.6726C16.5908 37.3404 20.8334 37.6655 20.5518 40.0633C20.2702 42.4611 19.6326 44.4445 22.8662 42.7568" stroke="black" stroke-width="0.547046"/>
<path d="M83.0566 119.393C84.1507 118.301 87.2689 116.446 90.9888 117.756C95.6387 119.393 97.4166 120.075 100.015 115.572C102.614 111.069 91.1256 116.118 96.4593 117.756C101.793 119.393 107.81 117.483 109.178 115.572" stroke="black" stroke-width="0.547046"/>
<path d="M100.836 14.8117C101.793 14.2482 104.287 13.5216 106.599 15.1232C109.489 17.1253 110.584 17.9301 113.218 15.2536C115.852 12.5771 107.001 14.0013 110.362 16.1291C113.722 18.2569 118.22 18.0252 119.52 16.9385" stroke="black" stroke-width="0.547046"/>
<path d="M51.2037 108.694L49.2196 114.761L44.9461 110.013L51.2037 108.694Z" fill="#B74747"/>
<ellipse cx="119.435" cy="69.8081" rx="4.37637" ry="4.36666" fill="#B74747" fill-opacity="0.2"/>
<defs>
<linearGradient id="paint0_linear_3719_22001" x1="32.7285" y1="30.7812" x2="133.622" y2="55.4926" gradientUnits="userSpaceOnUse">
<stop stop-color="#D98A8A"/>
<stop offset="1" stop-color="#B74747"/>
</linearGradient>
<linearGradient id="paint1_linear_3719_22001" x1="0" y1="0" x2="99.7939" y2="24.4421" gradientUnits="userSpaceOnUse">
<stop stop-color="#D98A8A"/>
<stop offset="1" stop-color="#B74747"/>
</linearGradient>
</defs>
</svg>
