<svg width="42" height="42" viewBox="0 0 42 42" fill="none" xmlns="http://www.w3.org/2000/svg">
<g filter="url(#filter0_d_2964_18816)">
<rect x="6" y="4" width="30" height="30" rx="15" fill="white"/>
</g>
<path d="M33 19C33 25.6274 27.6274 31 21 31C14.3726 31 9 25.6274 9 19C9 12.3726 14.3726 7 21 7C27.6274 7 33 12.3726 33 19Z" fill="#E17350"/>
<path fill-rule="evenodd" clip-rule="evenodd" d="M19.8026 11.1415C20.4986 11.1415 21.0629 11.7058 21.0629 12.4018V19.9818L25.1949 24.1138C25.687 24.606 25.687 25.404 25.1949 25.8962C24.7027 26.3884 23.9047 26.3884 23.4125 25.8962L18.5422 21.0259V12.4018C18.5422 11.7058 19.1065 11.1415 19.8026 11.1415Z" fill="white"/>
<defs>
<filter id="filter0_d_2964_18816" x="0" y="0" width="42" height="42" filterUnits="userSpaceOnUse" color-interpolation-filters="sRGB">
<feFlood flood-opacity="0" result="BackgroundImageFix"/>
<feColorMatrix in="SourceAlpha" type="matrix" values="0 0 0 0 0 0 0 0 0 0 0 0 0 0 0 0 0 0 127 0" result="hardAlpha"/>
<feOffset dy="2"/>
<feGaussianBlur stdDeviation="3"/>
<feComposite in2="hardAlpha" operator="out"/>
<feColorMatrix type="matrix" values="0 0 0 0 0 0 0 0 0 0 0 0 0 0 0 0 0 0 0.25 0"/>
<feBlend mode="normal" in2="BackgroundImageFix" result="effect1_dropShadow_2964_18816"/>
<feBlend mode="normal" in="SourceGraphic" in2="effect1_dropShadow_2964_18816" result="shape"/>
</filter>
</defs>
</svg>
