<svg width="18" height="18" viewBox="0 0 18 18" fill="none" xmlns="http://www.w3.org/2000/svg">
<path fill-rule="evenodd" clip-rule="evenodd" d="M17.3334 8.99996C17.3334 13.6023 13.6025 17.3333 9.00008 17.3333C4.39771 17.3333 0.666748 13.6023 0.666748 8.99996C0.666748 4.39759 4.39771 0.666626 9.00008 0.666626C13.6025 0.666626 17.3334 4.39759 17.3334 8.99996ZM11.3571 4.9666C11.7922 5.3995 12.0985 5.94479 12.2417 6.54162C12.4353 7.33998 12.3266 8.18175 11.9363 8.90465C11.5461 9.62755 10.9021 10.1804 10.1284 10.4566C9.95758 10.5175 9.83675 10.6691 9.83675 10.85V11.5016C9.83675 11.7231 9.74877 11.9355 9.59218 12.0921C9.43559 12.2486 9.2232 12.3366 9.00175 12.3366C8.78029 12.3366 8.56791 12.2486 8.41131 12.0921C8.25472 11.9355 8.16675 11.7231 8.16675 11.5016V9.82329C8.1696 9.60416 8.25865 9.39497 8.41462 9.24102C8.57056 9.08711 8.78084 9.00081 8.99994 9.00079H8.99425C9.91508 9.00079 10.6634 8.25245 10.6634 7.33412C10.6535 6.89778 10.4731 6.48268 10.1609 6.17768C9.84866 5.87269 9.42947 5.70203 8.99302 5.70225C8.55656 5.70246 8.13754 5.87354 7.82565 6.17885C7.51375 6.48416 7.33378 6.89944 7.32425 7.33579C7.32258 7.79495 6.94925 8.16745 6.48925 8.16745C6.28357 8.16619 6.08576 8.0883 5.93444 7.949C5.78311 7.8097 5.68916 7.61899 5.67091 7.41412L5.66675 7.29162C5.68091 5.20495 7.60091 3.59495 9.77758 4.08995C10.3751 4.23019 10.922 4.53369 11.3571 4.9666ZM9.83341 14C9.83341 14.4602 9.46032 14.8333 9.00008 14.8333C8.53984 14.8333 8.16675 14.4602 8.16675 14C8.16675 13.5397 8.53984 13.1666 9.00008 13.1666C9.46032 13.1666 9.83341 13.5397 9.83341 14Z" fill="black"/>
</svg>
