<svg width="16" height="16" viewBox="0 0 16 16" fill="none" xmlns="http://www.w3.org/2000/svg">
<path fill-rule="evenodd" clip-rule="evenodd" d="M15.5 8C15.5 12.1421 12.1421 15.5 8 15.5C3.85786 15.5 0.5 12.1421 0.5 8C0.5 3.85786 3.85786 0.5 8 0.5C12.1421 0.5 15.5 3.85786 15.5 8ZM6.0368 7.30169C6.1283 7.341 6.21106 7.39813 6.28025 7.46977L7.25 8.43952L9.71975 5.96977C9.78893 5.89813 9.87169 5.841 9.96319 5.80169C10.0547 5.76238 10.1531 5.74169 10.2527 5.74083C10.3523 5.73996 10.451 5.75894 10.5432 5.79665C10.6354 5.83436 10.7191 5.89005 10.7895 5.96047C10.86 6.03089 10.9157 6.11463 10.9534 6.2068C10.9911 6.29897 11.0101 6.39773 11.0092 6.49732C11.0083 6.5969 10.9876 6.69532 10.9483 6.78682C10.909 6.87832 10.8519 6.96108 10.7802 7.03027L7.78025 10.0303C7.6396 10.1709 7.44887 10.2499 7.25 10.2499C7.05112 10.2499 6.86039 10.1709 6.71975 10.0303L5.21975 8.53026C5.14812 8.46108 5.09098 8.37832 5.05167 8.28682C5.01236 8.19532 4.99168 8.0969 4.99081 7.99732C4.98994 7.89773 5.00892 7.79897 5.04663 7.7068C5.08434 7.61463 5.14003 7.53089 5.21045 7.46047C5.28087 7.39005 5.36461 7.33436 5.45678 7.29665C5.54895 7.25894 5.64771 7.23996 5.7473 7.24083C5.84688 7.24169 5.9453 7.26238 6.0368 7.30169Z" fill="#309F5D"/>
</svg>
