<svg width="14" height="16" viewBox="0 0 14 16" fill="none" xmlns="http://www.w3.org/2000/svg">
<path d="M7.44375 0.683617C7.38569 0.625413 7.31672 0.579234 7.24079 0.547726C7.16486 0.516218 7.08346 0.5 7.00125 0.5C6.91904 0.5 6.83764 0.516218 6.76171 0.547726C6.68578 0.579234 6.61681 0.625413 6.55875 0.683617C5.005 2.23487 3.2875 2.99987 1.375 2.99987C1.20924 2.99987 1.05027 3.06572 0.933058 3.18293C0.815848 3.30014 0.75 3.45911 0.75 3.62487V7.37612C0.75 11.3999 2.80125 14.1349 6.8025 15.4674C6.93069 15.5102 7.06931 15.5102 7.1975 15.4674C11.1975 14.1349 13.25 11.3999 13.25 7.37612V3.62487C13.25 3.45911 13.1842 3.30014 13.0669 3.18293C12.9497 3.06572 12.7908 2.99987 12.625 2.99987C10.7113 2.99987 8.99375 2.23737 7.44375 0.683617ZM10.5675 5.68362C10.6847 5.80082 10.7505 5.95976 10.7505 6.12549C10.7505 6.29122 10.6847 6.45016 10.5675 6.56737L6.8175 10.3174C6.75944 10.3756 6.69047 10.4217 6.61454 10.4533C6.53861 10.4848 6.45721 10.501 6.375 10.501C6.29279 10.501 6.21139 10.4848 6.13546 10.4533C6.05953 10.4217 5.99056 10.3756 5.9325 10.3174L4.0575 8.44237C3.94014 8.32501 3.87421 8.16584 3.87421 7.99987C3.87421 7.8339 3.94014 7.67473 4.0575 7.55737C4.17486 7.44001 4.33403 7.37408 4.5 7.37408C4.66597 7.37408 4.82514 7.44001 4.9425 7.55737L6.375 8.99112L9.6825 5.68362C9.74056 5.62541 9.80953 5.57923 9.88546 5.54773C9.96139 5.51622 10.0428 5.5 10.125 5.5C10.2072 5.5 10.2886 5.51622 10.3645 5.54773C10.4405 5.57923 10.5094 5.62541 10.5675 5.68362Z" fill="#E17350"/>
</svg>
