<svg width="42" height="42" viewBox="0 0 42 42" fill="none" xmlns="http://www.w3.org/2000/svg">
<g filter="url(#filter0_d_2964_18778)">
<rect x="6" y="4" width="30" height="30" rx="15" fill="white"/>
</g>
<path fill-rule="evenodd" clip-rule="evenodd" d="M21 7C14.3727 7 9 12.3727 9 19C9 25.6273 14.3727 31 21 31C27.6273 31 33 25.6273 33 19C33 12.3727 27.6273 7 21 7ZM26.2015 16.9709C26.2972 16.8614 26.3701 16.7339 26.4159 16.5958C26.4617 16.4577 26.4794 16.3119 26.4679 16.1669C26.4565 16.0219 26.4162 15.8806 26.3494 15.7514C26.2825 15.6222 26.1905 15.5077 26.0788 15.4146C25.967 15.3214 25.8378 15.2516 25.6987 15.2092C25.5595 15.1667 25.4133 15.1525 25.2686 15.1674C25.1239 15.1824 24.9836 15.2261 24.8561 15.296C24.7285 15.3659 24.6162 15.4606 24.5258 15.5745L19.8349 21.2025L17.4076 18.7742C17.2019 18.5755 16.9263 18.4655 16.6403 18.468C16.3543 18.4705 16.0806 18.5852 15.8784 18.7875C15.6761 18.9897 15.5614 19.2633 15.5589 19.5494C15.5564 19.8354 15.6664 20.111 15.8651 20.3167L19.1378 23.5895C19.245 23.6966 19.3733 23.7802 19.5146 23.835C19.6559 23.8898 19.8071 23.9145 19.9585 23.9076C20.1099 23.9007 20.2582 23.8624 20.3939 23.795C20.5297 23.7277 20.6499 23.6328 20.7469 23.5164L26.2015 16.9709Z" fill="#249674"/>
<defs>
<filter id="filter0_d_2964_18778" x="0" y="0" width="42" height="42" filterUnits="userSpaceOnUse" color-interpolation-filters="sRGB">
<feFlood flood-opacity="0" result="BackgroundImageFix"/>
<feColorMatrix in="SourceAlpha" type="matrix" values="0 0 0 0 0 0 0 0 0 0 0 0 0 0 0 0 0 0 127 0" result="hardAlpha"/>
<feOffset dy="2"/>
<feGaussianBlur stdDeviation="3"/>
<feComposite in2="hardAlpha" operator="out"/>
<feColorMatrix type="matrix" values="0 0 0 0 0 0 0 0 0 0 0 0 0 0 0 0 0 0 0.25 0"/>
<feBlend mode="normal" in2="BackgroundImageFix" result="effect1_dropShadow_2964_18778"/>
<feBlend mode="normal" in="SourceGraphic" in2="effect1_dropShadow_2964_18778" result="shape"/>
</filter>
</defs>
</svg>
